<svg width="204" height="204" viewBox="0 0 204 204" fill="none" xmlns="http://www.w3.org/2000/svg">
<path d="M132.5 147L108 181L60.5 145.5C60.5 145.5 67.3085 140.263 68.5 134C69.5608 128.424 66.5 116.5 66.5 116.5L79.5 124L81 150.5H97.5L95 116.5H97.5L106 105L107.5 103.5L113 101L114 97L118 96.5L134.5 83C134.5 83 124.5 102 123 114.5C122.333 120.058 129.752 139.873 131.917 145.5L141.459 132.5L138 114.5L142.5 94.5L147.5 114.5L151 119.5L141.459 132.5L131.917 145.5L132.5 147Z" fill="white"/>
<path d="M132.5 147L108 181L60.5 145.5C60.5 145.5 67.3085 140.263 68.5 134C69.5608 128.424 66.5 116.5 66.5 116.5L79.5 124L81 150.5H97.5L95 116.5H97.5L106 105L107.5 103.5L113 101L114 97L118 96.5L134.5 83C134.5 83 124.5 102 123 114.5C122.333 120.058 129.752 139.873 131.917 145.5M132.5 147C132.5 147 132.284 146.454 131.917 145.5M132.5 147L131.917 145.5M131.917 145.5L141.459 132.5M141.459 132.5L151 119.5L147.5 114.5L142.5 94.5L138 114.5L141.459 132.5Z" stroke="#B9C0CB"/>
<path d="M42.5097 158.22C42.445 158.993 42.5376 159.771 42.7818 160.506C43.1143 161.546 43.6589 162.566 44.2551 163.554C44.555 164.05 44.8734 164.547 45.1899 165.039C45.219 165.085 45.2481 165.13 45.2771 165.175C45.5659 165.623 45.8518 166.068 46.1278 166.515C46.7335 167.497 47.2622 168.451 47.6257 169.396C47.1969 168.958 46.7111 168.497 46.1833 168.02C44.3711 166.383 42.012 164.525 39.6221 162.812C37.2332 161.1 34.7934 159.518 32.8175 158.44C31.8332 157.903 30.9393 157.478 30.2119 157.227C30.1831 157.217 30.1543 157.207 30.1256 157.198C30.4478 156.831 30.808 156.416 31.1916 155.975C31.4084 155.725 31.6327 155.467 31.8619 155.204C32.8987 154.013 34.0486 152.706 35.1054 151.58C37.8995 152.914 40.5181 154.588 42.9017 156.564C42.6898 157.093 42.5574 157.651 42.5097 158.22Z" fill="#0B1331" stroke="#1F2745" stroke-width="1.5"/>
<path d="M84.1174 152.83L84.1174 152.83L84.1182 152.825C84.2489 151.951 84.3416 151.073 84.3962 150.191C87.2763 149.997 90.169 150.114 93.0239 150.541C93.107 151.675 93.5464 152.761 94.288 153.637C95.0555 154.58 96.0915 155.339 97.1682 156.01C97.7962 156.402 98.49 156.793 99.1678 157.176C99.6252 157.434 100.075 157.688 100.493 157.935C101.794 158.705 102.898 159.474 103.651 160.379C103.06 160.141 102.379 159.906 101.638 159.677C99.4147 158.992 96.5579 158.336 93.7273 157.826C90.8977 157.315 88.0657 156.944 85.8925 156.834C84.8175 156.78 83.8689 156.787 83.1514 156.885C83.2456 156.504 83.3447 156.149 83.4462 155.785C83.4548 155.754 83.4635 155.723 83.4722 155.692C83.6961 154.889 83.9273 154.041 84.1174 152.83Z" fill="#0B1331" stroke="#1F2745" stroke-width="1.5"/>
<path d="M162.533 123.996L162.585 124.241L162.83 124.189L179.277 120.719C182.704 122.766 185.331 124.367 186.497 125.186C186.746 127.083 185.826 129.58 184.368 131.752C183.63 132.852 182.764 133.854 181.863 134.637C180.994 135.392 180.105 135.933 179.281 136.169C167.302 129.423 160.591 125.611 156.564 123.143C152.53 120.67 151.209 119.557 149.989 118.205C148.802 116.88 148.008 114.899 147.063 111.179C146.453 108.779 145.785 105.679 144.906 101.596C144.424 99.3573 143.879 96.8234 143.244 93.9476L142.751 93.9789C142.213 99.9101 140.673 105.623 138.735 111.273C138.365 111.989 138.041 112.727 137.766 113.485L137.743 113.55L137.756 113.618C139.76 123.813 141.623 131.836 143.442 139.674C143.627 140.468 143.81 141.26 143.994 142.052C142.821 143.225 140.513 144.312 137.932 144.966C135.344 145.622 132.544 145.827 130.436 145.28C126.872 131.436 124.99 123.884 124.036 119.326C123.08 114.76 123.06 113.219 123.21 111.373C123.341 109.81 123.745 108.145 125.238 104.424C126.732 100.702 129.308 94.942 133.774 85.1931L133.82 85.0939L133.778 84.993C133.465 84.2404 133.312 83.8622 133.204 83.5738C136.034 84.2048 140.392 83.8292 144.693 82.6596C149.06 81.4722 153.433 79.4494 156.143 76.7583C157.852 83.9952 158.292 86.4372 160.358 100.281L157.869 100.811L157.624 100.863L157.676 101.107L162.533 123.996Z" fill="#FCE7F6" stroke="#1F2745" stroke-width="0.5"/>
<path d="M39.5658 140.719L25.9386 121.056C33.6661 120.05 36.3444 119.72 43.6314 118.823C44.964 118.659 46.4507 118.476 48.1507 118.266C48.9061 121.244 50.4762 127.073 51.0292 128.915C49.4851 130.514 41.6053 138.63 39.5658 140.719Z" fill="#FCE7F6" stroke="#1F2745"/>
<path d="M31.3679 115.452L31.3673 115.506L31.3746 115.56L31.7365 118.243L30.2127 118.439L29.8345 115.732C29.7513 114.995 29.9572 114.254 30.4091 113.666C30.6747 113.32 31.0129 113.043 31.3956 112.851L31.3679 115.452Z" fill="#FCE7F6" stroke="#1F2745" stroke-width="1.5"/>
<path d="M44.1169 113.992L44.1169 113.992L44.1176 113.997L44.4771 116.677L42.9573 116.872C42.8902 116.365 42.8354 115.945 42.7901 115.598C42.7173 115.04 42.6689 114.669 42.6323 114.421C42.5994 114.198 42.5675 114.009 42.5175 113.86C42.4932 113.787 42.4611 113.713 42.416 113.638C42.3428 113.274 42.2921 113.024 42.24 112.78C42.6465 112.71 43.0485 112.615 43.4437 112.496C43.8103 112.914 44.0464 113.434 44.1169 113.992Z" fill="#FCE7F6" stroke="#1F2745" stroke-width="1.5"/>
<path d="M182.773 143.871C182.165 141.068 181.698 138.112 181.516 136.166C184.31 134.116 186.33 131.186 187.253 127.852C188.525 128.203 189.776 128.626 191 129.119C190.79 131.694 189.783 135.984 188.437 140.178C187.719 142.411 186.914 144.592 186.097 146.441C185.525 147.734 184.959 148.838 184.427 149.678C184.237 149.222 184.04 148.669 183.842 148.035C183.463 146.822 183.099 145.375 182.773 143.871Z" fill="#B9C0CB" stroke="#1F2745" stroke-width="1.5"/>
<path d="M127.19 157.181C128.639 153.388 130.631 149.824 133.104 146.6C136.531 146.575 139.897 145.704 142.903 144.067C143.741 145.501 144.455 147.004 145.037 148.561C143.188 150.287 139.775 152.293 136.138 153.979C132.883 155.486 129.567 156.683 127.19 157.181Z" fill="#0B1331" stroke="#1F2745" stroke-width="1.5"/>
<path d="M46.7029 170.636C47.2899 171.244 47.7 171.745 47.9287 172.116C46.9493 171.85 45.2294 171.03 43.151 169.841C41.0243 168.626 38.5991 167.069 36.3578 165.458C34.1109 163.842 32.0756 162.19 30.7122 160.784C30.0263 160.076 29.5445 159.465 29.2828 158.979C29.1748 158.778 29.1168 158.621 29.0904 158.505C29.1815 158.518 29.2981 158.541 29.4431 158.581C29.9684 158.725 30.6936 159.034 31.5788 159.492C33.3381 160.401 35.5926 161.827 37.8834 163.437C40.1711 165.045 42.4742 166.822 44.3294 168.423C45.2573 169.224 46.0663 169.976 46.7029 170.636ZM28.8771 158.497C28.8748 158.498 28.8736 158.498 28.8735 158.498C28.8735 158.498 28.8746 158.497 28.8771 158.497Z" fill="#CFD4DC" stroke="#1F2745" stroke-width="1.5"/>
<path d="M105.203 162.875C104.153 163.409 99.9483 163.255 95.4117 162.66C92.6674 162.304 80.5139 160.226 82.2027 158.042C82.9913 157.021 89.8622 157.756 95.9313 159.018M105.203 162.875L95.7781 159.752C97.0215 160.012 99.8497 160.695 102.086 161.444C103.025 161.758 103.808 162.068 104.324 162.343C104.18 162.365 104.008 162.386 103.806 162.403C103.23 162.451 102.494 162.464 101.635 162.441C99.9176 162.396 97.7591 162.212 95.5092 161.917L95.5082 161.917C94.1579 161.741 90.4668 161.138 87.3363 160.311C85.7594 159.895 84.3854 159.437 83.5232 158.974C83.1532 158.775 82.9466 158.611 82.847 158.5C82.8772 158.489 82.9168 158.476 82.9676 158.462C83.1743 158.406 83.4751 158.36 83.8754 158.334C84.6719 158.283 85.7526 158.316 87.0247 158.421C89.562 158.632 92.7657 159.126 95.778 159.752L95.9313 159.018M105.203 162.875C107.366 161.777 98.4533 159.545 95.9313 159.018M105.203 162.875L95.9313 159.018M104.841 162.692C104.843 162.695 104.844 162.696 104.844 162.696C104.844 162.696 104.843 162.695 104.841 162.692ZM104.912 162.178C104.912 162.178 104.912 162.178 104.911 162.179L104.912 162.178Z" fill="#CFD4DC" stroke="#1F2745" stroke-width="1.5"/>
<path d="M96.8961 152.027C96.8973 152.027 96.8948 152.033 96.8855 152.042C96.8903 152.032 96.895 152.027 96.8961 152.027ZM96.3623 151.587C96.7147 151.812 96.8242 151.984 96.8581 152.066C96.8276 152.089 96.7751 152.122 96.6878 152.162C96.4221 152.282 95.9585 152.393 95.2418 152.421C94.9104 151.959 94.6878 151.43 94.5874 150.876C95.4323 151.104 95.9989 151.354 96.3623 151.587Z" fill="#B9C0CB" stroke="#1F2745" stroke-width="1.5"/>
<path d="M82.8894 150.405C82.854 150.878 82.8093 151.349 82.7539 151.821C82.3106 151.699 81.9816 151.561 81.7577 151.42C81.4599 151.232 81.4541 151.116 81.4572 151.077C81.4613 151.049 81.4946 150.925 81.8172 150.755C82.0551 150.63 82.4032 150.508 82.8894 150.405Z" fill="#B9C0CB" stroke="#1F2745" stroke-width="1.5"/>
<path d="M32.1464 150.667C32.5279 150.688 33.0124 150.777 33.607 150.963C33.1092 151.504 32.5785 152.101 32.0427 152.707C31.6642 152.314 31.4144 151.937 31.2784 151.617C31.0918 151.176 31.1577 150.959 31.2067 150.88L31.2622 150.816C31.3517 150.749 31.5985 150.637 32.1464 150.667Z" fill="#B9C0CB" stroke="#1F2745" stroke-width="1.5"/>
<path d="M43.9997 158.345C44.0215 158.099 44.0657 157.856 44.1315 157.62C44.8779 158.319 45.4029 158.92 45.7341 159.406C45.9528 159.726 46.0675 159.968 46.1164 160.132C46.1224 160.152 46.1271 160.17 46.1308 160.186C46.071 160.195 45.9768 160.201 45.8339 160.191C45.4457 160.164 44.8732 160.024 44.1135 159.718C43.9975 159.271 43.9588 158.807 43.9997 158.345ZM46.2222 160.16C46.2227 160.16 46.2194 160.163 46.2109 160.166C46.2175 160.161 46.2218 160.159 46.2222 160.16Z" fill="#B9C0CB" stroke="#1F2745" stroke-width="1.5"/>
<path d="M131.204 84.8887C131.215 83.5522 131.187 82.2161 131.121 80.8818C131.303 81.3764 131.425 81.6991 131.52 81.943C131.591 82.1272 131.646 82.2644 131.698 82.3958C131.831 82.7273 131.949 83.0213 132.28 83.9388C131.969 84.2148 131.608 84.5349 131.204 84.8887Z" fill="#B9C0CB" stroke="#1F2745" stroke-width="1.5"/>
<path d="M177.472 82.9884C177.405 82.823 177.342 82.6563 177.281 82.4886C177.508 82.5716 177.587 82.6556 177.601 82.6773L177.601 82.6773L177.603 82.6797C177.62 82.706 177.62 82.7173 177.618 82.7312C177.616 82.7554 177.603 82.8125 177.545 82.8964C177.525 82.9269 177.5 82.9578 177.472 82.9884Z" fill="#B9C0CB" stroke="#1F2745" stroke-width="1.5"/>
<path d="M166.475 85.0788C166.434 85.0622 166.406 85.0464 166.388 85.0339C166.413 84.9908 166.463 84.9208 166.563 84.8246C166.668 84.7224 166.813 84.6071 167.005 84.4825C167.023 84.5704 167.039 84.6573 167.053 84.7429C167.079 84.898 167.095 85.0365 167.1 85.157C166.801 85.1672 166.597 85.1274 166.475 85.0788Z" fill="#B9C0CB" stroke="#1F2745" stroke-width="1.5"/>
<path d="M153.641 68.7358C152.681 68.0891 151.702 67.4696 150.708 66.8781C151.651 66.9803 152.488 67.0787 153.234 67.1762C153.287 67.3801 153.343 67.5942 153.401 67.8174C153.477 68.1084 153.557 68.4151 153.641 68.7358Z" fill="#B9C0CB" stroke="#1F2745" stroke-width="1.5"/>
<mask id="path-21-inside-1_5292_26791" fill="white">
<path d="M133.259 45.8862C132.894 47.1845 132.347 48.4245 131.635 49.5693C131.673 49.0294 131.673 48.3514 131.731 47.506C132.158 47.0625 132.66 46.5226 133.259 45.8862Z"/>
</mask>
<path d="M133.259 45.8862C132.894 47.1845 132.347 48.4245 131.635 49.5693C131.673 49.0294 131.673 48.3514 131.731 47.506C132.158 47.0625 132.66 46.5226 133.259 45.8862Z" fill="#B9C0CB"/>
<path d="M133.259 45.8862L134.703 46.2917L132.166 44.8583L133.259 45.8862ZM131.635 49.5693L130.139 49.4624L132.908 50.362L131.635 49.5693ZM131.731 47.506L130.651 46.4653L130.272 46.8587L130.235 47.4036L131.731 47.506ZM131.814 45.4808C131.488 46.6426 130.999 47.7522 130.361 48.7766L132.908 50.362C133.696 49.0969 134.3 47.7265 134.703 46.2917L131.814 45.4808ZM133.131 49.6762C133.153 49.3723 133.163 49.0343 133.175 48.7049C133.187 48.3647 133.201 48.0048 133.228 47.6084L130.235 47.4036C130.204 47.8527 130.189 48.2544 130.177 48.5995C130.164 48.9554 130.155 49.2264 130.139 49.4624L133.131 49.6762ZM132.811 48.5467C133.247 48.0948 133.763 47.5394 134.351 46.9142L132.166 44.8583C131.557 45.5058 131.07 46.0302 130.651 46.4653L132.811 48.5467Z" fill="#1F2745" mask="url(#path-21-inside-1_5292_26791)"/>
<path d="M130.968 37.5813L131.022 38.208L131.648 38.2643C132.479 38.3389 133.001 38.3947 133.386 38.5196C133.714 38.6259 133.91 38.7719 134.084 39.0595C134.287 39.3958 134.47 39.9455 134.653 40.903C134.743 41.3731 134.829 41.9212 134.919 42.564C134.746 42.3808 134.575 42.1999 134.402 42.0209C134.364 41.3639 134.234 40.8126 134.025 40.3755C133.79 39.8825 133.419 39.466 132.913 39.3114C132.365 39.1438 131.829 39.3381 131.479 39.7435C131.33 39.9163 131.218 40.1198 131.141 40.3432C130.908 40.0827 130.626 39.7429 130.298 39.3277L130.041 39.0024L129.629 39.047C129.268 39.0861 128.928 39.1246 128.608 39.1608C127.47 39.2895 126.583 39.3898 125.872 39.3898C125.133 39.3898 124.741 39.2834 124.509 39.124C124.307 38.9856 124.11 38.7244 123.986 38.0879C123.881 37.5422 123.841 37.1799 123.864 36.9274C123.884 36.7125 123.94 36.65 124 36.6047C124.104 36.5262 124.349 36.4185 124.904 36.3661C125.445 36.3149 126.19 36.3236 127.208 36.395L127.208 36.395L127.213 36.3953C128.184 36.4567 128.919 36.5188 129.481 36.5963C130.052 36.6749 130.394 36.7634 130.604 36.8554C130.79 36.9367 130.835 37.0033 130.858 37.0472C130.9 37.1238 130.941 37.2636 130.968 37.5813Z" fill="#B9C0CB" stroke="#1F2745" stroke-width="1.5"/>
<path d="M133.397 56.0826L133.331 56.1803L133.365 56.2932C133.399 56.4076 133.467 56.7394 133.562 57.2589C133.657 57.7711 133.775 58.4503 133.91 59.2462C134.18 60.8377 134.515 62.8929 134.852 65.0064C135.514 69.153 136.184 73.5182 136.39 75.0459C135.659 76.2431 134.821 77.3711 133.886 78.4159C133.049 77.3386 132.327 76.1765 131.732 74.9484C131.75 74.2535 132.039 70.2344 132.357 66.0562C132.685 61.7541 133.042 57.3141 133.157 56.2293L133.165 56.1528L133.129 56.0851C132.764 55.4029 132.504 54.6705 132.356 53.9121C132.601 53.2793 132.877 52.6366 133.153 51.9948C133.573 52.7104 133.999 53.4048 134.461 54.0757C134.177 54.7799 133.821 55.4525 133.397 56.0826Z" fill="#FCE7F6" stroke="#1F2745" stroke-width="0.5"/>
<path d="M109.579 87.6747C109.588 87.6688 109.683 87.6127 109.963 87.6784C110.113 87.7134 110.295 87.779 110.509 87.8842C110.314 88.051 110.142 88.1988 109.989 88.3306C109.937 88.3753 109.888 88.418 109.84 88.4589C109.801 88.4929 109.763 88.5256 109.726 88.5571C109.575 88.3076 109.507 88.1109 109.488 87.969C109.464 87.7852 109.519 87.7181 109.579 87.6747Z" fill="#B9C0CB" stroke="#1F2745"/>
<path d="M116.856 96.2258C116.979 96.117 117.101 96.0092 117.217 95.9071C117.256 96.0227 117.284 96.1253 117.303 96.2151C117.319 96.2944 117.327 96.3565 117.33 96.4039C117.302 96.3988 117.268 96.3911 117.228 96.3799C117.123 96.3504 116.998 96.3005 116.856 96.2258ZM117.453 96.4102C117.453 96.4105 117.45 96.4115 117.444 96.4124C117.449 96.4104 117.453 96.4099 117.453 96.4102Z" fill="#B9C0CB" stroke="#1F2745" stroke-width="1.5"/>
<path d="M30.8517 104.488C30.8532 104.488 30.8546 104.487 30.8561 104.486C30.8561 104.487 30.856 104.488 30.856 104.488C30.8546 104.488 30.8532 104.488 30.8517 104.488ZM30.1872 104.877C30.1861 104.879 30.1854 104.88 30.1854 104.88C30.1853 104.88 30.1859 104.879 30.1872 104.877ZM30.1027 104.346C30.1036 104.345 30.1108 104.349 30.1214 104.357C30.1071 104.35 30.1018 104.346 30.1027 104.346Z" fill="#B9C0CB" stroke="#1F2745" stroke-width="1.5"/>
<path d="M41.8196 103.22C41.82 103.22 41.8174 103.223 41.8104 103.228C41.8157 103.222 41.8192 103.22 41.8196 103.22ZM40.9299 103.46C41.0083 103.473 41.0822 103.486 41.1515 103.5C41.0914 103.516 41.027 103.532 40.9578 103.548C40.948 103.519 40.9386 103.49 40.9299 103.46ZM41.8596 103.736C41.8617 103.738 41.8626 103.739 41.8626 103.739C41.8625 103.739 41.8614 103.738 41.8596 103.736Z" fill="#B9C0CB" stroke="#1F2745" stroke-width="1.5"/>
<path d="M44.6599 84.7232C44.1872 84.877 43.6619 85.0456 43.1158 85.218C43.6565 84.8264 44.1925 84.4283 44.7239 84.024C44.7017 84.257 44.6803 84.4901 44.6599 84.7232Z" fill="#B9C0CB" stroke="#1F2745" stroke-width="1.5"/>
<mask id="path-30-inside-2_5292_26791" fill="white">
<path d="M71.4748 60.4451C71.4139 60.5425 71.3428 60.633 71.2626 60.7151C70.7897 61.2073 69.2816 61.1403 67.9317 60.9282C67.6429 60.1226 67.485 59.276 67.4639 58.4204C69.1222 60.0788 70.8191 61.39 71.4748 60.4451Z"/>
</mask>
<path d="M71.4748 60.4451C71.4139 60.5425 71.3428 60.633 71.2626 60.7151C70.7897 61.2073 69.2816 61.1403 67.9317 60.9282C67.6429 60.1226 67.485 59.276 67.4639 58.4204C69.1222 60.0788 70.8191 61.39 71.4748 60.4451Z" fill="#B9C0CB"/>
<path d="M71.4748 60.4451L72.7467 61.2403L70.2424 59.59L71.4748 60.4451ZM71.2626 60.7151L70.1891 59.6674L70.181 59.6758L71.2626 60.7151ZM67.9317 60.9282L66.5197 61.4344L66.82 62.2719L67.6989 62.41L67.9317 60.9282ZM67.4639 58.4204L68.5245 57.3598L65.8718 54.7071L65.9643 58.4574L67.4639 58.4204ZM70.2028 59.65C70.1989 59.6563 70.1943 59.6621 70.1892 59.6674L72.3361 61.7628C72.4913 61.6038 72.6289 61.4286 72.7467 61.2403L70.2028 59.65ZM70.181 59.6758C70.3361 59.5144 70.458 59.5073 70.3545 59.5343C70.2728 59.5556 70.1191 59.5793 69.8807 59.5865C69.4062 59.6008 68.7936 59.5453 68.1646 59.4464L67.6989 62.41C68.4197 62.5233 69.2361 62.6073 69.9713 62.5851C70.3378 62.574 70.7342 62.5354 71.1105 62.4375C71.4649 62.3452 71.9527 62.1619 72.3443 61.7544L70.181 59.6758ZM69.3437 60.422C69.109 59.7671 68.9806 59.0789 68.9634 58.3834L65.9643 58.4574C65.9894 59.473 66.1769 60.4781 66.5197 61.4344L69.3437 60.422ZM66.4032 59.4811C67.2455 60.3234 68.1981 61.1836 69.0884 61.704C69.522 61.9574 70.0918 62.222 70.7184 62.2581C71.4589 62.3008 72.2137 62.0113 72.7071 61.3003L70.2424 59.59C70.408 59.3514 70.7049 59.2524 70.8909 59.2631C70.9632 59.2672 70.8821 59.2775 70.6022 59.1139C70.0656 58.8003 69.3406 58.1758 68.5245 57.3598L66.4032 59.4811Z" fill="#1F2745" mask="url(#path-30-inside-2_5292_26791)"/>
<path d="M71.227 47.0216L71.1085 49.1953L72.5407 47.5559C72.848 47.2042 73.1138 47.0965 73.2875 47.0736C73.4602 47.0509 73.6185 47.1008 73.7506 47.2082C74.0218 47.4287 74.1766 47.8943 73.8798 48.3753C73.2714 49.3029 72.408 50.0351 71.3934 50.4839L71.3847 50.4877L71.3761 50.4918C70.8369 50.7469 70.2746 50.9502 69.697 51.0992L69.1085 51.2509L69.1349 51.858C69.1476 52.1508 69.1447 52.3945 69.1315 52.5948C68.8992 52.3119 68.6099 52.0993 68.2718 51.9986C67.7389 51.8397 67.1902 51.9975 66.8227 52.4087C66.2224 53.0803 66.2594 54.1443 66.8026 55.2469C66.1751 55.8279 65.5386 56.3992 64.8935 56.9605C63.8052 54.7917 63.1454 53.1061 62.7836 51.8162C62.3715 50.3473 62.3664 49.4633 62.4881 48.9819C62.5968 48.5525 62.7691 48.5268 62.8274 48.5194C62.9699 48.5012 63.216 48.5714 63.4276 48.7768L65.1399 50.4395L64.6864 48.0962C64.6321 47.8158 64.6831 47.6631 64.7261 47.5885C64.7701 47.5123 64.8462 47.4473 64.9679 47.4094C65.2311 47.3277 65.6391 47.4045 65.923 47.7398L67.2019 49.251L67.2453 47.2717C67.2487 47.115 67.3034 46.9638 67.401 46.8412C67.4986 46.7186 67.6337 46.6313 67.7857 46.5928C67.9376 46.5543 68.0979 46.5667 68.2422 46.6281C68.3864 46.6894 68.5065 46.7964 68.5841 46.9326L69.609 48.7305L69.9739 46.6934C69.98 46.6592 70.0169 46.5685 70.1717 46.4704C70.324 46.374 70.5274 46.3152 70.7187 46.318C70.9077 46.3207 71.0262 46.3799 71.0907 46.4458C71.1455 46.5018 71.2473 46.6495 71.227 47.0216Z" fill="#B9C0CB" stroke="#1F2745" stroke-width="1.5"/>
<path d="M179.669 89.4826C179.904 89.5618 180.127 89.6788 180.327 89.8308C180.768 90.1645 181.074 90.6448 181.192 91.1849C181.192 91.1852 181.192 91.1855 181.192 91.1858L181.922 94.5964L180.421 94.9179L179.845 92.1739C179.865 91.2729 179.806 90.3724 179.669 89.4826Z" fill="#B9C0CB" stroke="#1F2745" stroke-width="1.5"/>
<path d="M167.005 94.2136L167.005 94.2136L167.003 94.2019C166.937 93.9062 166.931 93.6005 166.985 93.3025C167.039 93.0047 167.151 92.7206 167.316 92.4666C167.481 92.213 167.695 91.9946 167.945 91.8242C168.04 91.7594 168.14 91.702 168.243 91.6524C168.267 91.7811 168.292 91.9223 168.32 92.074C168.441 92.7467 168.593 93.6152 168.743 94.4799C168.883 95.2866 169.022 96.0993 169.132 96.7434C169.167 96.9442 169.198 97.1286 169.226 97.2912L167.702 97.6179L167.005 94.2136Z" fill="#B9C0CB" stroke="#1F2745" stroke-width="1.5"/>
<path d="M179.093 92.2427L179.959 96.348L182.929 95.7116L181.925 91.0268C181.77 90.3114 181.364 89.6751 180.78 89.233C180.196 88.7909 179.474 88.5722 178.743 88.6165C179.01 89.8059 179.127 91.0238 179.093 92.2427Z" stroke="#1F2745" stroke-width="1.5" stroke-linejoin="round"/>
<path d="M168.816 90.7002L168.623 90.7388C168.229 90.8196 167.855 90.9779 167.523 91.2044C167.19 91.4308 166.906 91.721 166.687 92.0581C166.468 92.3957 166.318 92.7734 166.247 93.1693C166.176 93.5651 166.184 93.9712 166.27 94.364L167.224 99.0721L170.194 98.4358C170.16 98.2703 168.929 91.0392 168.816 90.7002Z" stroke="#1F2745" stroke-width="1.5" stroke-linejoin="round"/>
<path d="M30.529 100.777C30.5285 100.775 30.5283 100.775 30.5283 100.775L30.529 100.777ZM31.1385 101.277C31.1389 101.278 31.1391 101.278 31.139 101.278L31.1385 101.277Z" fill="#B9C0CB" stroke="#1F2745" stroke-width="1.5"/>
<path d="M92.3998 101.493C92.3998 101.493 92.4 101.492 92.4005 101.491L92.3998 101.493ZM92.8868 101.377C92.8868 101.377 92.8863 101.377 92.8853 101.377L92.8868 101.377Z" fill="#B9C0CB" stroke="#1F2745" stroke-width="1.5"/>
<path d="M119.62 92.9299C119.62 92.9298 119.62 92.9322 119.618 92.9373C119.619 92.9325 119.62 92.9299 119.62 92.9299ZM119.251 93.2982C119.251 93.2981 119.252 93.2979 119.253 93.2975L119.251 93.2982Z" fill="#B9C0CB" stroke="#1F2745" stroke-width="1.5"/>
<path d="M175.308 78.5235C175.305 78.5219 175.304 78.5208 175.304 78.5206C175.304 78.5205 175.305 78.5214 175.308 78.5235Z" fill="#B9C0CB" stroke="#1F2745" stroke-width="1.5"/>
<path d="M163.208 123.365L159.809 107.322L162.768 114.267L162.779 114.291L162.791 114.314C162.869 114.454 162.988 114.568 163.131 114.641L163.131 114.641C163.274 114.714 163.436 114.742 163.596 114.721L163.617 114.719L163.637 114.714L167.584 113.874L168.076 116.16L168.181 116.649L168.67 116.544L171.543 115.927L172.032 115.822L171.927 115.333L171.434 113.046L185.266 110.108L185.759 112.397L185.864 112.886L186.352 112.781L189.226 112.164L189.715 112.059L189.609 111.57L189.117 109.283L193.062 108.442C193.238 108.405 193.395 108.307 193.506 108.166L193.113 107.857L193.506 108.166C193.616 108.025 193.674 107.851 193.67 107.673C193.67 107.672 193.67 107.67 193.67 107.669L193.555 100.09L196.996 116.188L163.208 123.365Z" fill="#1F2745" stroke="#1F2745"/>
<path d="M166.941 112.183L164.037 112.803L159.237 101.541L191.682 94.6315L191.871 106.889L188.984 107.495L188.562 105.526L188.405 104.792L187.671 104.95L184.798 105.567L184.07 105.723L184.221 106.452L184.629 108.421L171.282 111.254L170.86 109.286L170.703 108.552L169.969 108.71L167.096 109.327L166.363 109.484L166.52 110.217L166.941 112.183Z" fill="#1F2745" stroke="#1F2745" stroke-width="1.5"/>
<path d="M162.823 123.958L157.926 101.052L192.688 93.6475L197.59 116.573L162.823 123.958Z" stroke="#1F2745" stroke-linecap="round" stroke-linejoin="round"/>
<path d="M6.00049 107.001L24.0005 120.501H30.0005C30.0005 120.501 29.5005 115.768 29.5005 114.501C29.5005 113.001 32.0005 111.501 32.0005 111.501L31.5005 104.501H29.5005C29.5005 104.501 28.1323 92.8803 29.0005 85.501C30.0005 77.001 36.5005 75.001 36.5005 75.001L31.0005 71.001L6.00049 107.001Z" fill="white" stroke="#B9C0CB"/>
<path d="M198 50.501L178.5 79.501C178.5 79.501 175.992 62.5856 168.5 56.001C161.167 49.5554 144.5 49.001 144.5 49.001L162 25.001L198 50.501Z" fill="white" stroke="#B9C0CB"/>
<path d="M95.7715 91.9525C98.1819 92.2996 98.6812 92.4122 99.3774 92.0103C101.031 91.0574 101.712 89.8791 102.656 90.1592C103.042 90.2718 103.427 90.3906 103.832 90.5255" stroke="#1F2745" stroke-linecap="round" stroke-linejoin="round"/>
<path d="M95.6172 101.696C96.3692 101.773 97.2755 101.889 97.7576 101.966" stroke="#1F2745" stroke-width="1.5" stroke-linecap="round" stroke-linejoin="round"/>
<path d="M176.201 81.5405C176.683 83.6424 177.993 85.2429 178.84 88.9493C179.11 90.3925 179.156 91.8692 178.975 93.3266C178.858 93.6227 178.649 93.8733 178.378 94.0415C178.108 94.2096 177.79 94.2863 177.473 94.2603C177.262 94.2429 177.058 94.181 176.873 94.0786" stroke="#1F2745" stroke-linecap="round" stroke-linejoin="round"/>
<path d="M167.524 83.3535C167.743 84.0457 167.846 84.7683 167.829 85.4939C167.751 86.3231 166.151 88.0007 166.151 88.9263C166.202 89.8702 166.508 90.7826 167.038 91.5651" stroke="#1F2745" stroke-linecap="round" stroke-linejoin="round"/>
<path d="M117.465 94.6724C116.617 95.4244 114.573 97.237 113.71 98.0855" stroke="#1F2745" stroke-width="1.5" stroke-linecap="round" stroke-linejoin="round"/>
<path d="M111.371 87.8076C109.501 89.3695 109.366 89.7197 108.556 89.7552C106.647 89.8394 105.032 89.2193 104.372 89.948C103.132 91.3861 101.992 92.9066 100.958 94.4989C100.126 95.7167 102.405 96.5621 105.201 93.3226C106.025 93.7497 106.929 93.9995 107.856 94.056C108.782 94.1125 109.71 93.9743 110.58 93.6504" stroke="#1F2745" stroke-linecap="round" stroke-linejoin="round"/>
<path opacity="0.2" d="M45.0005 85.001L42.5005 86.001L43.0005 102.501L41.5005 104.501L44.0005 108.501L45.5005 117.501H48.5005C45.0005 105.001 44.5005 97.001 45.0005 85.001Z" fill="white" stroke="#1F2745"/>
<path opacity="0.2" d="M154.5 67.001L160 100.001L164 99.001L166.5 95.501L165.5 90.001L167.5 86.001L165.5 85.001L161.5 69.001L154.5 67.001Z" fill="white" stroke="#1F2745"/>
<path d="M163.853 99.7755L166.578 95.9067" stroke="#1F2745" stroke-width="1.5" stroke-linecap="round" stroke-linejoin="round"/>
<path d="M39.1562 141.683L24.1925 143.553L21.3965 121.124L48.5471 117.731" fill="#FCE7F6"/>
<path d="M39.1562 141.683L24.1925 143.553L21.3965 121.124L48.5471 117.731" stroke="#1F2745" stroke-width="1.5" stroke-linecap="round" stroke-linejoin="round"/>
<path d="M67.9315 60.9282C67.648 60.1219 67.4965 59.275 67.4829 58.4204C69.0053 59.958 70.5875 61.2134 71.3334 60.6359" stroke="#1F2745" stroke-width="1.5" stroke-linecap="round" stroke-linejoin="round"/>
<path d="M46.7344 73.6924C44.6326 89.196 44.1607 97.9911 45.8667 106.358C47.4205 113.977 50.1861 124.272 51.6131 129.073C44.9797 135.842 31.9829 148.819 30.6138 150.439" stroke="#1F2745" stroke-linecap="round" stroke-linejoin="round"/>
<path d="M32.0987 153.795C30.5946 152.56 30.077 151.175 30.6139 150.439C31.371 149.402 34.3375 149.683 40.1397 153.585C45.271 157.036 47.2795 159.642 46.8309 160.588C46.564 161.149 45.404 161.128 43.495 160.299" stroke="#1F2745" stroke-linecap="round" stroke-linejoin="round"/>
<path d="M83.3726 152.734C81.5985 152.406 80.6059 151.826 80.6922 150.998C80.815 149.821 83.2761 149.088 89.736 149.456C95.8254 149.802 97.5507 151.113 97.6228 152.078C97.6654 152.657 96.8322 153.177 94.8653 153.177" stroke="#1F2745" stroke-linecap="round" stroke-linejoin="round"/>
<path d="M46.8115 160.56C66.9624 138.654 67.8403 137.245 68.3274 133.641C68.5923 131.692 68.5202 129.244 67.0354 116.787" stroke="#1F2745" stroke-linecap="round" stroke-linejoin="round"/>
<path d="M28.4539 157.94C29.6891 155.819 50.2438 170.667 48.8169 172.807C47.7025 174.485 26.6231 161.084 28.4539 157.94Z" fill="#B9C0CB" stroke="#1F2745" stroke-width="1.5" stroke-linecap="round" stroke-linejoin="round"/>
<path d="M82.1191 158.21C82.3069 155.896 105.779 160.177 105.432 162.587C105.161 164.477 81.8421 161.622 82.1191 158.21Z" fill="#B9C0CB" stroke="#1F2745" stroke-width="1.5" stroke-linecap="round" stroke-linejoin="round"/>
<path d="M34.9332 150.651C32.8699 152.792 29.5725 156.741 28.4541 157.921" stroke="#1F2745" stroke-width="1.5" stroke-linecap="round" stroke-linejoin="round"/>
<path d="M43.8461 156.359C40.8957 161.701 49.7467 166.772 48.8191 172.808" stroke="#1F2745" stroke-width="1.5" stroke-linecap="round" stroke-linejoin="round"/>
<path d="M82.1191 158.21C82.6205 155.183 83.4304 154.585 83.7004 149.514" stroke="#1F2745" stroke-width="1.5" stroke-linecap="round" stroke-linejoin="round"/>
<path d="M93.7854 149.918C93.4809 156.263 104.68 156.475 105.452 162.587" stroke="#1F2745" stroke-width="1.5" stroke-linecap="round" stroke-linejoin="round"/>
<path d="M80.7113 150.999C80.9619 144.635 80.1906 127.473 79.8821 124.677C61.2546 112.741 54.0813 110.504 52.9243 105.24" stroke="#1F2745" stroke-linecap="round" stroke-linejoin="round"/>
<path d="M97.6223 152.078C96.4461 121.148 96.1 117.563 93.6693 113.936C91.2955 110.389 89.3306 108.884 78.9756 102.54" stroke="#1F2745" stroke-linecap="round" stroke-linejoin="round"/>
<path d="M29.4952 104.68C28.3382 89.2346 28.455 83.2243 30.9222 79.5707C34.4743 74.3267 44.7867 68.6362 55.6431 65.7681C69.2763 62.1611 74.8105 62.6635 77.298 64.9003C79.3278 66.7332 79.9368 69.6074 80.5376 88.6541C84.2684 89.0955 92.9376 90.1409 94.6914 90.4504C97.1789 92.6294 97.6031 100.092 94.6914 102.849C81.0775 102.849 74.8663 102.698 72.1302 100.979C67.9041 98.323 67.1166 95.7919 65.1883 78.0321C64.7458 83.4324 64.5722 89.1382 64.4778 91.7536" stroke="#1F2745" stroke-width="1.5" stroke-linecap="round" stroke-linejoin="round"/>
<path d="M79.4194 88.521L80.5358 88.6529" stroke="#1F2745" stroke-width="1.5" stroke-linecap="round" stroke-linejoin="round"/>
<path d="M31.5783 105.24C30.1706 105.278 29.5129 105.047 29.4764 104.68C29.4165 104.083 31.424 103.133 35.7241 102.713C40.1207 102.284 42.3768 102.791 42.4732 103.369C42.5311 103.716 42.0297 104.14 40.5063 104.372" stroke="#1F2745" stroke-width="1.5" stroke-linecap="round" stroke-linejoin="round"/>
<path d="M45.3682 85.2814C43.1592 86.0063 40.9347 86.6831 38.6963 87.3112C41.1065 85.7893 43.4305 84.1348 45.6575 82.3555" stroke="#1F2745" stroke-width="1.5" stroke-linecap="round" stroke-linejoin="round"/>
<path d="M42.4921 103.388C42.2993 99.3388 42.0293 90.7192 42.0293 86.3379" stroke="#1F2745" stroke-width="1.5" stroke-linecap="round" stroke-linejoin="round"/>
<path d="M29.1299 99.4352C30.8075 97.0248 40.6419 96.1764 42.2617 97.8114" stroke="#1F2745" stroke-linecap="round" stroke-linejoin="round"/>
<path d="M88.9647 89.6782C91.3943 91.8958 91.1629 100.322 88.0776 102.829" stroke="#1F2745" stroke-linecap="round" stroke-linejoin="round"/>
<path d="M44.9219 98.8956C48.8932 96.0234 57.2184 94.5579 67.5876 94.4219" stroke="#1F2745" stroke-linecap="round" stroke-linejoin="round"/>
<path d="M44.8257 95.8488C48.5453 93.1085 57.106 91.7232 66.9881 91.7222" stroke="#1F2745" stroke-linecap="round" stroke-linejoin="round"/>
<path d="M40.0817 102.598C40.0502 103.294 40.2542 103.98 40.6602 104.545C40.9647 104.931 42.9945 106.74 43.437 107.399C43.9241 108.129 44.1697 111.198 43.7841 111.526C43.2827 111.951 39.9082 112.297 38.5583 112.297C37.5942 112.297 37.8256 110.658 41.0073 109.848C38.3685 110.002 36.5915 109.231 36.1479 106.936" stroke="#1F2745" stroke-linecap="round" stroke-linejoin="round"/>
<path d="M31.655 103.427C31.5009 106.261 31.5524 109.103 31.8093 111.931" stroke="#1F2745" stroke-linecap="round" stroke-linejoin="round"/>
<path d="M34.3742 112.182C34.2727 110.427 36.3634 110.195 36.5725 111.877C36.7288 113.131 36.8059 114.018 36.9003 115.023C36.9642 115.328 36.9046 115.645 36.7347 115.905C36.5647 116.166 36.2983 116.348 35.994 116.412C35.6897 116.476 35.3724 116.416 35.1121 116.246C34.8517 116.076 34.6695 115.81 34.6056 115.505C34.4716 114.402 34.3944 113.293 34.3742 112.182Z" stroke="#1F2745" stroke-linecap="round" stroke-linejoin="round"/>
<path d="M41.3353 112.104C41.5089 112.916 41.6489 113.569 41.7981 114.283C41.8517 114.499 41.8428 114.726 41.7725 114.937C41.7021 115.148 41.5733 115.334 41.4009 115.475C41.2285 115.615 41.0198 115.704 40.799 115.73C40.5782 115.756 40.3545 115.719 40.154 115.623C39.8849 115.496 39.6744 115.271 39.5653 114.994C39.3403 114.106 39.1728 113.204 39.064 112.294" stroke="#1F2745" stroke-linecap="round" stroke-linejoin="round"/>
<path d="M32.1567 112.181C32.1567 110.485 34.1865 110.369 34.2971 112.008C34.3783 113.226 34.3986 114.09 34.4321 115.053C34.4549 115.201 34.4483 115.352 34.4126 115.497C34.377 115.643 34.3131 115.78 34.2244 115.901C34.1358 116.022 34.0242 116.124 33.8961 116.202C33.7679 116.28 33.6257 116.331 33.4776 116.354C33.3295 116.377 33.1783 116.37 33.0327 116.335C32.8871 116.299 32.75 116.235 32.6291 116.147C32.5082 116.058 32.406 115.946 32.3283 115.818C32.2505 115.69 32.1988 115.548 32.176 115.4C32.0806 114.592 32.1567 113.724 32.1567 112.181Z" stroke="#1F2745" stroke-linecap="round" stroke-linejoin="round"/>
<path d="M39.0211 112.297C39.1754 113.223 39.2748 113.955 39.3875 114.765C39.4557 115.068 39.4034 115.386 39.2415 115.651C39.0796 115.916 38.8209 116.108 38.5202 116.186C38.2194 116.263 37.9003 116.221 37.6302 116.067C37.3602 115.914 37.1605 115.661 37.0735 115.363C36.8886 114.245 36.7599 113.119 36.6878 111.989C36.5315 110.485 37.9991 110.022 38.6547 110.909" stroke="#1F2745" stroke-linecap="round" stroke-linejoin="round"/>
<path d="M104.468 102C104.696 100.399 102.898 99.9347 102.501 101.441C102.344 102.038 102.136 102.848 102 103.471C101.929 103.745 101.969 104.036 102.111 104.282C102.252 104.527 102.484 104.708 102.757 104.784C103.03 104.86 103.323 104.826 103.571 104.688C103.819 104.551 104.003 104.321 104.083 104.049C104.246 103.373 104.375 102.689 104.468 102Z" stroke="#1F2745" stroke-linecap="round" stroke-linejoin="round"/>
<path d="M102.424 101.518C102.839 99.9247 100.951 99.3371 100.457 100.843C100.251 101.465 100.052 102.088 99.8594 102.714C99.4078 104.229 101.462 104.894 101.884 103.562C102.117 102.829 102.298 102 102.424 101.518Z" stroke="#1F2745" stroke-linecap="round" stroke-linejoin="round"/>
<path d="M100.342 101.055C100.828 99.5268 99.15 98.8783 98.4518 100.284C98.26 100.671 97.9646 101.362 97.6997 102.058C97.5719 102.314 97.5508 102.61 97.6413 102.881C97.7317 103.152 97.9261 103.376 98.1818 103.504C98.4375 103.632 98.7336 103.653 99.0048 103.563C99.276 103.472 99.5002 103.278 99.628 103.022C99.8351 102.577 100.182 101.555 100.342 101.055Z" stroke="#1F2745" stroke-width="1.5" stroke-linecap="round" stroke-linejoin="round"/>
<path d="M106.493 102.289C106.545 100.727 104.849 100.361 104.565 101.846C104.447 102.463 104.27 103.672 104.237 104.005C104.25 104.253 104.351 104.488 104.52 104.669C104.69 104.85 104.917 104.965 105.163 104.995C105.41 105.025 105.658 104.967 105.866 104.832C106.074 104.697 106.228 104.493 106.3 104.256C106.402 103.604 106.466 102.948 106.493 102.289Z" stroke="#1F2745" stroke-linecap="round" stroke-linejoin="round"/>
<path d="M91.2786 149.591C90.4667 123.385 90.758 119.104 88.8489 116.27C86.1483 112.259 82.9047 110.475 67.8304 101.537C65.3611 100.074 64.6294 98.4329 64.5137 94.5347" stroke="#1F2745" stroke-linecap="round" stroke-linejoin="round"/>
<path d="M125.892 40.1206C127.222 47.7324 127.608 48.8741 128.803 49.0101C129.98 49.1441 130.712 48.663 133.277 45.8863C132.99 47.2198 132.444 48.4839 131.669 49.6069" stroke="#1F2745" stroke-width="1.5" stroke-linecap="round" stroke-linejoin="round"/>
<path d="M131.717 47.5112C131.848 49.2366 131.632 51.3273 130.385 52.0377C126.74 54.1395 125.277 54.989 124.041 56.7428C121.673 60.1011 121.823 62.3349 121.38 77.26C116.906 81.1166 111.332 85.4553 109.289 87.2872" stroke="#1F2745" stroke-width="1.5" stroke-linecap="round" stroke-linejoin="round"/>
<path d="M109.636 89.2925C108.824 88.3091 108.824 87.6007 109.289 87.287C109.929 86.8506 111.773 87.559 114.592 90.7773C117.616 94.228 118.384 96.2121 117.985 96.9093C117.711 97.3894 116.732 97.2564 115.651 96.3115" stroke="#1F2745" stroke-linecap="round" stroke-linejoin="round"/>
<path d="M167.755 85.8408C166.425 86.0722 165.685 85.6876 165.634 85.0888C165.567 84.2992 167.101 83.0722 171.554 82.0999C176.55 81.0099 178.236 81.694 178.341 82.5627C178.336 82.9135 178.213 83.2522 177.992 83.5249C177.771 83.7975 177.466 83.9883 177.124 84.0668" stroke="#1F2745" stroke-width="1.5" stroke-linecap="round" stroke-linejoin="round"/>
<path d="M165.634 85.108C162.414 71.0507 162.082 69.6085 160.755 68.6403C158.939 67.3148 157.67 66.7891 147.142 65.8057C149.827 67.1932 152.405 68.7788 154.855 70.5493" stroke="#1F2745" stroke-linecap="round" stroke-linejoin="round"/>
<path d="M179.306 120.454C182.858 122.594 185.592 124.233 186.73 125.043C187.405 129.306 182.449 135.765 179.248 136.44C155.183 122.884 152.292 121.127 149.803 118.374C147.433 115.75 146.602 111.49 142.687 93.8849C141.833 93.8343 140.993 93.6455 140.2 93.3257" stroke="#1F2745" stroke-linecap="round" stroke-linejoin="round"/>
<path d="M153.833 66.519C154.913 70.6456 157.399 80.2486 158.557 87.1712C159.193 90.97 159.965 96.1024 160.64 100.477" stroke="#1F2745" stroke-width="1.5" stroke-linecap="round" stroke-linejoin="round"/>
<path d="M133.547 85.0889C124.616 104.546 123.216 108.151 122.96 111.333C122.656 115.088 123.057 117.6 130.23 145.464C134.607 146.756 142.186 144.442 144.249 142.109C142.244 133.451 140.2 124.812 137.982 113.551C138.734 111.391 141 102.502 143 95.002" stroke="#1F2745" stroke-linecap="round" stroke-linejoin="round"/>
<path d="M186.71 126.914C188.444 127.363 190.145 127.93 191.801 128.611C191.589 133.798 187.482 147.335 184.339 151.095C182.738 148.685 181.06 139.718 180.752 135.784" fill="#0B1331"/>
<path d="M186.71 126.914C188.444 127.363 190.145 127.93 191.801 128.611C191.589 133.798 187.482 147.335 184.339 151.095C182.738 148.685 181.06 139.718 180.752 135.784" stroke="#1F2745" stroke-width="1.5" stroke-linecap="round" stroke-linejoin="round"/>
<path d="M143.15 143.035C144.263 144.835 145.181 146.748 145.89 148.742C142.188 152.541 131.004 157.555 126.029 158.114C127.59 153.695 129.849 149.554 132.72 145.85" stroke="#1F2745" stroke-width="1.5" stroke-linecap="round" stroke-linejoin="round"/>
<path d="M117.965 96.9429C122.075 93.7572 130.532 86.524 133.181 84.144" stroke="#1F2745" stroke-width="1.5" stroke-linecap="round" stroke-linejoin="round"/>
<path d="M113.724 83.5845C117.33 83.8737 122.421 90.565 122.054 93.6503" stroke="#1F2745" stroke-linecap="round" stroke-linejoin="round"/>
<path d="M164.416 79.7664C165.778 76.812 175.118 75.0217 177.093 76.6202" stroke="#1F2745" stroke-width="0.5" stroke-linecap="round" stroke-linejoin="round"/>
<path d="M131.58 50.09C132.004 50.6431 132.543 51.0978 133.161 51.4205C135.421 50.4408 137.546 49.1758 139.485 47.6562" stroke="#1F2745" stroke-width="1.5" stroke-linecap="round" stroke-linejoin="round"/>
<path d="M140.643 48.3931C139.831 51.0541 136.999 55.065 136.324 55.952C135.062 54.611 133.996 53.098 133.157 51.4581C132.434 52.9525 131.866 54.5167 131.461 56.1266C131.088 54.3686 131.055 52.5555 131.364 50.7852" stroke="#1F2745" stroke-width="1.5" stroke-linecap="round" stroke-linejoin="round"/>
<path d="M132.142 53.894C132.297 54.7019 132.57 55.4813 132.954 56.208C132.723 58.3677 131.527 73.9688 131.527 75.009C132.171 76.3657 132.973 77.641 133.918 78.8078C134.955 77.6655 135.878 76.4256 136.676 75.1055C136.29 72.213 133.936 57.2686 133.631 56.2283C134.075 55.5412 134.449 54.8115 134.748 54.0493" stroke="#1F2745" stroke-linecap="round" stroke-linejoin="round"/>
<path d="M131.812 80.5378C137.095 82.2926 150.844 78.8023 155.588 73.4224" stroke="#1F2745" stroke-width="0.5" stroke-linecap="round" stroke-linejoin="round"/>
<path d="M132.814 83.2376C138.387 84.8188 151.346 81.7152 156.282 76.2764" stroke="#1F2745" stroke-width="0.5" stroke-linecap="round" stroke-linejoin="round"/>
<path d="M131.001 84.5015C131.129 80.6477 129.027 68.8213 128.501 65.0015" stroke="#1F2745" stroke-linecap="round" stroke-linejoin="round"/>
<path d="M138.349 83.5654C139.465 88.2705 139.525 88.714 141.164 88.6176" stroke="#1F2745" stroke-linecap="round" stroke-linejoin="round"/>
<path d="M174.852 121.399C180.058 124.696 184.763 127.666 186.267 128.63" stroke="#1F2745" stroke-width="1.5" stroke-linecap="round" stroke-linejoin="round"/>
<path d="M152.29 79.3423C154.565 88.9838 157.149 101.981 157.959 110.581C158.723 111.106 159.494 111.621 160.273 112.124" stroke="#1F2745" stroke-width="1.5" stroke-linecap="round" stroke-linejoin="round"/>
<path d="M108.729 94.0557C113.743 96.6396 114.688 98.2979 113.01 99.8213" stroke="#1F2745" stroke-linecap="round" stroke-linejoin="round"/>
<path d="M109.964 97.6611C112.837 99.1266 113.719 99.9528 112.798 101.213C112.276 101.924 111.564 101.946 108.845 100.056" stroke="#1F2745" stroke-linecap="round" stroke-linejoin="round"/>
<path d="M107.65 101.807C108.575 102.424 110.677 104.43 111.661 101.595" stroke="#1F2745" stroke-linecap="round" stroke-linejoin="round"/>
<path d="M106.377 103.716C107.225 103.928 108.768 104.468 109.327 102.904" stroke="#1F2745" stroke-linecap="round" stroke-linejoin="round"/>
<path d="M176.915 91.3174C176.992 92.1577 176.992 93.0031 176.915 93.8435C176.818 94.7315 175.756 95.5028 174.479 94.6554" stroke="#1F2745" stroke-linecap="round" stroke-linejoin="round"/>
<path d="M174.505 92.0112C174.565 92.7744 174.579 93.5407 174.543 94.3059C174.523 94.5955 174.419 94.873 174.243 95.1042C174.068 95.3354 173.828 95.5103 173.555 95.6073C173.281 95.7043 172.985 95.7193 172.703 95.6504C172.421 95.5815 172.165 95.4316 171.967 95.2193" stroke="#1F2745" stroke-linecap="round" stroke-linejoin="round"/>
<path d="M171.92 92.609C172.038 93.3549 172.076 94.111 172.036 94.8651C172.016 95.1927 171.872 95.5005 171.634 95.7263C171.396 95.9521 171.081 96.079 170.753 96.0815C170.425 96.0839 170.108 95.9617 169.866 95.7395C169.625 95.5173 169.477 95.2116 169.452 94.8844C169.288 93.0536 168.966 91.2406 168.488 89.4658" stroke="#1F2745" stroke-linecap="round" stroke-linejoin="round"/>
<path d="M170.687 91.452C171.94 91.0664 176.086 90.0058 177.378 89.7744" stroke="#1F2745" stroke-linecap="round" stroke-linejoin="round"/>
<path d="M69.7969 63.0277C68.9509 62.5642 68.2917 61.8218 67.9316 60.9268C69.2793 61.1379 70.8007 61.2141 71.2625 60.7137C72.0744 59.8663 72.323 57.8629 71.6887 51.2041C71.112 51.4738 70.5108 51.6879 69.8934 51.8435C69.9898 54.1778 69.1971 54.2549 68.777 53.4247C67.9833 51.8648 66.2123 53.0005 67.755 55.4109C63.7644 59.1224 57.3441 64.6282 50.3413 67.3918" stroke="#1F2745" stroke-width="1.5" stroke-linecap="round" stroke-linejoin="round"/>
<path d="M178.321 82.5628C174.87 64.9959 172.84 60.8886 169.123 57.4562C162.819 51.6134 155.587 51.0522 143.205 49.5502C141.818 49.3695 138.426 47.1347 135.956 44.8745" stroke="#1F2745" stroke-width="1.5" stroke-linecap="round" stroke-linejoin="round"/>
<path d="M170.127 109.443L167.254 110.06L168.565 116.055L171.438 115.438L170.127 109.443Z" stroke="#1F2745" stroke-linecap="round" stroke-linejoin="round"/>
<path d="M187.829 105.683L184.956 106.3L186.248 112.292L189.121 111.675L187.829 105.683Z" stroke="#1F2745" stroke-linecap="round" stroke-linejoin="round"/>
<path d="M32.1179 115.46L32.1564 111.834C31.2268 111.971 30.3867 112.464 29.8143 113.209C29.242 113.954 28.9823 114.893 29.0904 115.826L29.6588 120.06L32.6679 119.675L32.1179 115.46Z" stroke="#1F2745" stroke-width="1.5" stroke-linejoin="round"/>
<path d="M44.861 113.898C44.75 113.02 44.3157 112.216 43.6431 111.642C42.8959 111.905 42.1185 112.074 41.3291 112.143C41.4925 112.853 41.5443 113.105 41.7148 113.956C41.8731 114.114 41.9127 114.838 42.3998 118.469L45.408 118.083L44.861 113.898Z" stroke="#1F2745" stroke-width="1.5" stroke-linejoin="round"/>
</svg>
