<svg width="204" height="204" viewBox="0 0 204 204" fill="none" xmlns="http://www.w3.org/2000/svg">
<path d="M28.1992 130.252L75.1281 12.9297C75.5071 11.9823 76.8949 12.1442 77.0456 13.1534L87.8504 85.4981C87.9327 86.0493 88.4498 86.4269 88.9999 86.3374L147.748 76.7848C148.517 76.6598 149.128 77.4232 148.836 78.1458L101.048 196.66C100.656 197.633 99.2202 197.422 99.1251 196.376L92.1024 119.127C92.048 118.528 91.4817 118.112 90.8944 118.24L29.3398 131.601C28.5565 131.771 27.9015 130.996 28.1992 130.252Z" fill="white" stroke="#B9C0CB"/>
<path d="M121.958 138.663L122.075 139.199L122.622 139.25C123.927 139.371 127.808 139.5 132.263 139.649L132.377 139.653C136.738 139.798 141.664 139.963 145.378 140.156C146.447 142.183 147.169 145.5 147.252 148.738C147.295 150.44 147.161 152.077 146.827 153.45C146.524 154.698 146.072 155.658 145.505 156.268C131.384 156.266 123.832 156.116 119.271 155.721C116.98 155.522 115.469 155.263 114.273 154.938C113.081 154.614 112.178 154.218 111.089 153.715C110.345 153.37 109.518 152.534 108.638 151.192C107.772 149.872 106.913 148.155 106.066 146.182C104.423 142.353 102.867 137.659 101.417 133.235C103.625 130.688 108.888 125.332 111.6 122.723L110.755 121.507C103.859 124.825 95.4862 128.088 88.2639 130.725L87.4357 131.027L87.867 131.796C90.4848 136.464 98.6956 152.996 101.331 158.318C100.276 160.686 97.7195 162.712 94.5924 164.006C91.4629 165.3 87.9284 165.789 85.1196 165.224L84.9043 164.868C77.1013 151.987 71.8663 143.346 68.6915 137.144C65.4507 130.813 64.4542 127.197 64.9259 124.32C65.1302 123.081 65.5428 121.99 66.3935 120.873C67.2565 119.74 68.5926 118.55 70.6912 117.159C74.9008 114.369 82.0024 110.879 94.0174 105.444L94.5035 105.224L94.4552 104.693C94.3662 103.714 94.2124 102.267 94.0243 100.564C102.103 95.7023 110.857 93.5482 120.406 93.406C123.891 99.6188 124.499 104.865 123.672 108.93C122.826 113.089 120.467 116.07 118.022 117.648L118.001 117.662L117.986 117.673L117.556 117.941L117.65 118.445C118.361 122.239 119.979 129.622 121.262 135.481C121.509 136.611 121.744 137.683 121.958 138.663Z" fill="#A8D3CC" stroke="#1F2745" stroke-width="1.5"/>
<path d="M47.8193 62.5107C47.9587 62.5928 48.0997 62.6772 48.2446 62.7639C48.3201 62.8091 48.3966 62.8549 48.4746 62.9014C48.6184 62.7159 48.7719 62.5609 48.9438 62.4436C49.2151 62.2586 49.5094 62.1828 49.8325 62.1973C50.1415 62.2112 50.469 62.3073 50.8206 62.446C51.1743 62.5855 51.5814 62.7803 52.0524 63.0109L47.8193 62.5107ZM47.8193 62.5107C47.7848 62.0312 47.7444 61.5428 47.7029 61.0413C47.5771 59.5188 47.4412 57.8751 47.4272 55.9886C47.4093 50.7695 48.4156 43.7505 53.5792 33.0967C54.2105 31.8069 54.867 30.5296 55.5482 29.2655L78.9919 41.9496C78.2664 43.2804 77.5415 44.5138 76.8308 45.7042C70.7456 55.8589 65.4249 60.5189 61.0249 63.357C59.3722 64.4165 57.8722 65.2293 56.4876 65.9797C56.0884 66.196 55.6987 66.4072 55.3178 66.6176C55.3158 66.5938 55.3137 66.5697 55.3117 66.5451L55.3118 66.5451L55.3109 66.5372C55.2156 65.6217 55.0994 65.0082 54.5842 64.4867C54.3398 64.2392 54.0207 64.0272 53.6176 63.8029C53.2222 63.5828 52.7201 63.3373 52.0914 63.03L52.0527 63.0111L47.8193 62.5107ZM61.6046 55.8927L62.0982 56.8813L62.3258 55.8L63.505 50.199L69.1663 49.335L70.2649 49.1673L69.298 48.6194L64.3248 45.8013L65.2459 40.146L65.4231 39.0579L64.607 39.7992L60.3889 43.6305L55.3042 41.0125L54.3218 40.5067L54.7772 41.5135L57.1351 46.7268L53.0626 50.7614L52.2739 51.5428L53.3771 51.4175L59.0486 50.773L61.6046 55.8927Z" fill="#B9C0CB" stroke="#1F2745" stroke-width="0.77"/>
<path d="M52.9442 81.657C51.1173 80.4615 49.0104 79.4009 47.4292 78.3789" stroke="#1F2745" stroke-linecap="round" stroke-linejoin="round"/>
<path d="M103.446 61.7759L102.675 53.5034" stroke="#1F2745" stroke-width="1.5" stroke-linecap="round" stroke-linejoin="round"/>
<path d="M53.2523 32.9669L43.2251 27.5483C35.2074 42.3578 42.5309 53.5805 47.0624 56.0295" stroke="#1F2745" stroke-width="1.5" stroke-linecap="round" stroke-linejoin="round"/>
<path d="M59.2878 50.3797L53.3486 51.0353L57.5909 46.8316L55.1227 41.3745L60.4448 44.1127L64.8606 40.0825L63.8965 45.9831L69.1029 48.9527L63.183 49.8591L61.9875 55.7211L59.2878 50.3797Z" stroke="#1F2745" stroke-width="1.5" stroke-linecap="round" stroke-linejoin="round"/>
<path d="M77.2304 45.9268L87.1906 51.3433C79.1648 66.1527 65.7681 66.1527 61.2549 63.7037" stroke="#1F2745" stroke-width="1.5" stroke-linecap="round" stroke-linejoin="round"/>
<path d="M170.397 45.2886C171.328 45.2886 172.221 44.9188 172.879 44.2607C173.537 43.6025 173.907 42.7098 173.907 41.7791C173.907 40.8483 173.537 39.9556 172.879 39.2974C172.221 38.6393 171.328 38.2695 170.397 38.2695C169.466 38.2695 168.574 38.6393 167.916 39.2974C167.257 39.9556 166.888 40.8483 166.888 41.7791C166.888 42.7098 167.257 43.6025 167.916 44.2607C168.574 44.9188 169.466 45.2886 170.397 45.2886Z" stroke="#1F2745" stroke-width="1.5" stroke-linecap="round" stroke-linejoin="round"/>
<path d="M34.1044 103.736C34.3399 103.736 34.5731 103.689 34.7906 103.599C35.0082 103.509 35.2059 103.377 35.3724 103.21C35.539 103.044 35.6711 102.846 35.7612 102.629C35.8513 102.411 35.8977 102.178 35.8977 101.942C35.8977 101.707 35.8513 101.474 35.7612 101.256C35.6711 101.038 35.539 100.841 35.3724 100.674C35.2059 100.508 35.0082 100.376 34.7906 100.285C34.5731 100.195 34.3399 100.149 34.1044 100.149C33.6287 100.149 33.1726 100.338 32.8363 100.674C32.5 101.01 32.311 101.467 32.311 101.942C32.311 102.418 32.5 102.874 32.8363 103.21C33.1726 103.547 33.6287 103.736 34.1044 103.736Z" stroke="#1F2745" stroke-width="1.5" stroke-linecap="round" stroke-linejoin="round"/>
<path d="M125.815 15.6509L124.021 22.8242L129.459 21.86L127.666 29.0334" stroke="#1F2745" stroke-width="1.5" stroke-linecap="round" stroke-linejoin="round"/>
<path d="M46.0019 73.3074C48.1839 74.3426 49.5287 71.7293 47.4867 70.5672C45.9643 69.7015 44.8642 69.1585 43.6301 68.5232C43.2624 68.3109 42.827 68.2486 42.4145 68.3493C42.002 68.4499 41.6443 68.7058 41.4157 69.0635C41.1871 69.4213 41.1053 69.8535 41.1873 70.2701C41.2693 70.6867 41.5089 71.0556 41.856 71.3C42.8385 71.9201 43.9995 72.3575 46.0019 73.3074Z" stroke="#1F2745" stroke-linecap="round" stroke-linejoin="round"/>
<path d="M48.6052 63.4343C47.8338 62.9715 47.2767 62.6589 46.5226 62.2164C46.1672 61.9684 45.7277 61.8717 45.301 61.9477C44.8743 62.0236 44.4952 62.2659 44.2472 62.6214C43.9992 62.9768 43.9025 63.4162 43.9784 63.8429C44.0544 64.2697 44.2967 64.6487 44.6521 64.8968C45.4769 65.4472 46.3404 65.937 47.2361 66.3623" stroke="#1F2745" stroke-linecap="round" stroke-linejoin="round"/>
<path d="M45.038 76.373C47.1784 77.3179 48.4308 74.7563 46.4264 73.6927C44.9406 72.9041 43.8394 72.4068 42.6469 71.8415C42.2871 71.6393 41.8628 71.5846 41.4635 71.689C41.0642 71.7933 40.7209 72.0485 40.506 72.4009C40.2911 72.7533 40.2213 73.1753 40.3113 73.5781C40.4013 73.9809 40.6441 74.333 40.9885 74.5604C41.9527 75.1186 43.0711 75.5053 45.038 76.373Z" stroke="#1F2745" stroke-linecap="round" stroke-linejoin="round"/>
<path d="M47.1957 66.4422C46.4051 66.018 45.7069 65.6983 44.9396 65.2852C44.5714 65.0567 44.1287 64.9803 43.7052 65.0721C43.2817 65.164 42.9104 65.417 42.67 65.7776C42.4296 66.1382 42.3389 66.5782 42.417 67.0045C42.495 67.4308 42.7358 67.81 43.0884 68.062C44.0901 68.7196 45.2329 69.1916 47.2495 70.2024C48.9302 71.0438 49.872 69.2575 49.2935 68.0813" stroke="#1F2745" stroke-linecap="round" stroke-linejoin="round"/>
<path d="M55.9136 70.1832C56.4728 69.3926 57.2015 69.0911 57.6298 69.3347C58.394 69.7711 58.458 71.9958 56.0871 76.6816C53.56 81.6759 51.786 83.0876 50.9193 82.8136C50.3205 82.6238 50.2251 81.4445 50.5915 80.249" stroke="#1F2745" stroke-linecap="round" stroke-linejoin="round"/>
<path d="M57.9537 71.8994C56.6424 71.3595 55.3149 70.3973 54.9455 66.5772C54.7659 64.7504 54.503 64.6286 51.9008 63.357C48.8561 61.8701 49.0276 62.1391 46.7329 67.5414C46.1687 68.8699 48.237 70.241 50.6281 66.3844C48.7577 69.3347 49.1058 72.2708 50.821 74.1362" stroke="#1F2745" stroke-linecap="round" stroke-linejoin="round"/>
<path d="M151.324 13.4334C151.134 15.8437 148.21 15.9209 148.22 13.5876C148.227 11.8521 148.301 10.618 148.374 9.22964C148.496 6.91566 151.582 6.93495 151.652 8.84397C151.697 10.001 151.502 11.2158 151.324 13.4334Z" stroke="#1F2745" stroke-width="1.5" stroke-linecap="round" stroke-linejoin="round"/>
<path d="M141.511 11.661C141.492 10.8125 141.505 10.1934 141.492 9.38353C141.456 7.18526 144.588 7.0858 144.732 8.92074C144.798 9.85749 144.798 10.7983 144.732 11.7361" stroke="#1F2745" stroke-width="1.5" stroke-linecap="round" stroke-linejoin="round"/>
<path d="M154.643 13.9922C154.402 16.3457 151.567 16.3447 151.654 14.0693C151.719 12.3917 151.825 11.1961 151.924 9.86557C152.092 7.63279 155.087 7.72515 155.087 9.5611C155.087 10.6755 154.863 11.8527 154.643 13.9922Z" stroke="#1F2745" stroke-width="1.5" stroke-linecap="round" stroke-linejoin="round"/>
<path d="M144.809 11.7167C144.828 10.8104 144.904 10.0391 144.924 9.17133C144.979 6.81879 148.12 6.78023 148.241 8.70854C148.315 9.88582 148.145 11.1189 148.029 13.3771C148.036 13.7139 147.934 14.044 147.739 14.3187C147.544 14.5933 147.266 14.798 146.946 14.9025C146.626 15.0065 146.28 15.0045 145.961 14.8966C145.642 14.7887 145.366 14.5808 145.175 14.3037" stroke="#1F2745" stroke-width="1.5" stroke-linecap="round" stroke-linejoin="round"/>
<path d="M143.729 21.2235C142.765 21.3778 142.147 21.8406 142.147 22.3227C142.147 23.1904 144.018 24.2287 149.244 24.1353C154.797 24.0338 156.901 23.0554 157.092 22.1684C157.229 21.5321 156.417 20.9505 155.202 20.7607" stroke="#1F2745" stroke-width="1.5" stroke-linecap="round" stroke-linejoin="round"/>
<path d="M144.211 23.7301C144.385 22.3224 144.204 20.732 141.106 18.7357C139.619 17.7766 139.64 17.4823 139.834 14.6091C140.063 11.2153 140.201 11.5015 146.004 11.7938C147.431 11.8659 147.586 14.3199 143.073 14.7827C146.544 14.397 148.916 15.9782 149.67 18.3115" stroke="#1F2745" stroke-width="1.5" stroke-linecap="round" stroke-linejoin="round"/>
<path d="M155.106 23.4796C154.99 19.5073 155.41 13.1053 155.106 10.02" stroke="#1F2745" stroke-width="1.5" stroke-linecap="round" stroke-linejoin="round"/>
<path d="M142.148 22.3418C142.186 27.1626 142.148 39.5038 141.82 45.2694C140.297 46.2721 128.284 52.2722 123.134 54.6603C118.473 56.823 114.532 56.3755 112.696 53.4363C110.159 49.3767 114.491 42.5495 116.248 38.636C117.54 35.7628 115.573 34.9915 114.108 36.4377C114.108 35.1458 112.411 34.683 111.505 36.1099C111.408 34.8758 109.403 34.5876 108.439 36.2642C108.207 34.9529 105.97 35.2422 105.18 36.727C104.948 35.57 103.033 36.2195 102.692 37.9611C99.6303 53.551 101.474 56.1278 108.728 52.5391C108.111 54.0507 107.074 55.3538 105.739 56.2943" stroke="#1F2745" stroke-width="1.5" stroke-linecap="round" stroke-linejoin="round"/>
<path d="M157.092 22.1875C157.092 49.3574 157.387 50.691 155.954 53.3683C154.053 56.9204 150.304 59.1339 121.746 75.0039C122.035 78.9955 122.44 83.7584 122.44 87.0559" stroke="#1F2745" stroke-width="1.5" stroke-linecap="round" stroke-linejoin="round"/>
<path d="M57.6299 69.3349C63.9933 73.1529 72.6321 77.0867 73.712 77.588C78.5328 75.6212 94.4779 68.4255 101.013 64.1284C104.83 61.6196 105.93 56.4345 105.949 53.6577" stroke="#1F2745" stroke-linecap="round" stroke-linejoin="round"/>
<path d="M101.017 64.1445C103.543 66.8056 113.319 64.9564 115.845 55.7949" stroke="#1F2745" stroke-width="1.5" stroke-linecap="round" stroke-linejoin="round"/>
<path d="M101.807 42.9942C104.3 42.2654 106.885 41.9017 109.482 41.9144C108.942 43.9777 109.177 46.7544 110.06 44.8454C110.943 42.9364 113.155 44.408 111.583 46.8316C111.327 47.3377 111.222 47.9065 111.28 48.4705C111.338 49.0345 111.557 49.57 111.91 50.0133" stroke="#1F2745" stroke-width="1.5" stroke-linecap="round" stroke-linejoin="round"/>
<path d="M85.5708 132.487C94.2868 129.363 108.56 124.085 118.024 118.545C123.387 115.406 128.553 106.011 120.859 92.6478C122.305 87.5733 125.275 77.1056 126.745 72.228" stroke="#1F2745" stroke-width="1.5" stroke-linecap="round" stroke-linejoin="round"/>
<path d="M103.176 100.496C70.8578 114.881 65.1957 118.16 64.1859 124.195C63.3242 129.345 65.5164 134.511 84.6452 165.907C89.9674 167.354 99.956 164.133 102.154 158.296C96.4079 146.624 90.4302 134.851 88.5211 131.434" stroke="#1F2745" stroke-width="1.5" stroke-linecap="round" stroke-linejoin="round"/>
<path d="M98.7607 127.531C102.077 137.211 106.223 152.271 110.793 154.392C115.363 156.514 117.138 156.938 145.807 157.015C148.681 154.817 148.777 144.153 145.807 139.409C138.196 138.985 125.425 138.735 122.706 138.484C121.376 132.313 119.256 122.651 118.444 118.256" stroke="#1F2745" stroke-width="1.5" stroke-linecap="round" stroke-linejoin="round"/>
<path d="M101.248 160.004C102.613 161.136 103.854 162.409 104.95 163.803C102.637 170.263 93.4821 182.488 85.9566 187.135C85.5131 182.141 87.3643 172.037 89.7168 166.097" stroke="#1F2745" stroke-width="1.5" stroke-linecap="round" stroke-linejoin="round"/>
<path d="M139.833 139.159C142.379 142.013 143.632 151.751 139.448 156.996" stroke="#1F2745" stroke-width="1.5" stroke-linecap="round" stroke-linejoin="round"/>
<path d="M81.1743 160.197C87.0364 161.489 96.2963 159.136 99.2619 152.445" stroke="#1F2745" stroke-width="1.5" stroke-linecap="round" stroke-linejoin="round"/>
<path d="M85.8794 184.32C89.6203 181.967 99.2619 173.02 103.736 162.398" stroke="#1F2745" stroke-width="1.5" stroke-linecap="round" stroke-linejoin="round"/>
<path d="M146.641 141.087C147.8 140.952 148.971 140.952 150.131 141.087C153.39 143.726 162.491 154.643 162.607 164.42C157.362 163.709 149.552 158.538 147.046 155.202" stroke="#1F2745" stroke-width="1.5" stroke-linecap="round" stroke-linejoin="round"/>
<path d="M148.472 141.01C152.024 144.288 160.621 156.031 161.006 164.092" stroke="#1F2745" stroke-width="1.5" stroke-linecap="round" stroke-linejoin="round"/>
<path d="M90.6426 77.5879C91.1439 83.5849 93.2813 99.8406 93.6873 104.738" stroke="#1F2745" stroke-width="1.5" stroke-linecap="round" stroke-linejoin="round"/>
<path d="M120.859 92.6479C109.945 92.7251 100.959 95.4247 93.2261 100.168" stroke="#1F2745" stroke-width="1.5" stroke-linecap="round" stroke-linejoin="round"/>
<path d="M92.8214 158.673C88.6177 150.517 79.9017 131.908 78.0312 128.013C86.7472 123.617 108.903 114.399 112.722 112.028C116.54 109.656 118.044 106.609 113.994 93.0723" stroke="#1F2745" stroke-width="1.5" stroke-linecap="round" stroke-linejoin="round"/>
<path d="M50.9385 82.8188C69.1996 93.863 72.1316 95.0606 76.7007 93.8051C81.8738 92.2674 86.9162 90.32 91.7801 87.9816" stroke="#1F2745" stroke-width="1.5" stroke-linecap="round" stroke-linejoin="round"/>
<path d="M78.3784 93.3227C83.529 89.9096 89.0613 83.9704 91.0474 81.6006" stroke="#1F2745" stroke-width="1.5" stroke-linecap="round" stroke-linejoin="round"/>
<path d="M100.592 133.066C102.868 130.366 109.443 124.002 111.815 121.843" stroke="#1F2745" stroke-width="1.5" stroke-linecap="round" stroke-linejoin="round"/>
<path d="M27.2397 48.3545L27.9086 52.135" stroke="#1F2745" stroke-width="1.5" stroke-linecap="round" stroke-linejoin="round"/>
<path d="M35.8967 54.4106L32.1162 55.0795" stroke="#1F2745" stroke-width="1.5" stroke-linecap="round" stroke-linejoin="round"/>
<path d="M29.8407 63.0686L29.1719 59.2871" stroke="#1F2745" stroke-width="1.5" stroke-linecap="round" stroke-linejoin="round"/>
<path d="M21.1836 57.0116L24.9661 56.3418" stroke="#1F2745" stroke-width="1.5" stroke-linecap="round" stroke-linejoin="round"/>
<path d="M32.1162 55.0795C31.6468 55.1628 31.1655 55.1528 30.7 55.0498C30.2345 54.9469 29.7939 54.7531 29.4034 54.4796C29.0129 54.2061 28.6802 53.8583 28.4244 53.456C28.1685 53.0537 27.9946 52.6049 27.9124 52.1353C27.9961 52.6049 27.9863 53.0864 27.8836 53.5522C27.7809 54.018 27.5873 54.459 27.3139 54.8498C27.0405 55.2407 26.6927 55.5738 26.2903 55.83C25.888 56.0862 25.4391 56.2606 24.9692 56.343C25.4387 56.2595 25.92 56.2694 26.3857 56.3722C26.8513 56.475 27.2921 56.6686 27.6828 56.942C28.0734 57.2154 28.4063 57.5632 28.6624 57.9655C28.9185 58.3677 29.0926 58.8166 29.175 59.2862C29.0916 58.8169 29.1015 58.3357 29.2042 57.8701C29.3069 57.4046 29.5004 56.9639 29.7735 56.5732C30.0467 56.1825 30.3942 55.8494 30.7962 55.5931C31.1981 55.3368 31.6467 55.1623 32.1162 55.0795Z" stroke="#1F2745" stroke-width="1.5" stroke-linecap="round" stroke-linejoin="round"/>
<path d="M170.378 105.587L171.336 111.009" stroke="#1F2745" stroke-width="1.5" stroke-linecap="round" stroke-linejoin="round"/>
<path d="M182.791 114.271L177.37 115.23" stroke="#1F2745" stroke-width="1.5" stroke-linecap="round" stroke-linejoin="round"/>
<path d="M174.108 126.685L173.149 121.263" stroke="#1F2745" stroke-width="1.5" stroke-linecap="round" stroke-linejoin="round"/>
<path d="M161.693 118L167.118 117.042" stroke="#1F2745" stroke-width="1.5" stroke-linecap="round" stroke-linejoin="round"/>
<path d="M177.37 115.23C176.696 115.349 176.006 115.335 175.338 115.188C174.67 115.04 174.038 114.763 173.478 114.371C172.917 113.979 172.439 113.481 172.071 112.904C171.704 112.327 171.454 111.683 171.336 111.009C171.456 111.682 171.442 112.372 171.295 113.04C171.148 113.708 170.871 114.34 170.48 114.901C170.087 115.461 169.589 115.939 169.012 116.306C168.435 116.674 167.792 116.924 167.118 117.042C168.132 116.862 169.176 116.987 170.119 117.401C171.062 117.816 171.861 118.5 172.414 119.369C172.781 119.946 173.031 120.589 173.149 121.263C173.029 120.59 173.043 119.9 173.191 119.232C173.338 118.564 173.616 117.932 174.007 117.371C174.399 116.81 174.898 116.332 175.475 115.965C176.052 115.597 176.696 115.348 177.37 115.23Z" stroke="#1F2745" stroke-width="1.5" stroke-linecap="round" stroke-linejoin="round"/>
<path d="M55.3928 28.7437C54.6433 30.123 53.9232 31.5181 53.2331 32.9281C48.046 43.6302 47.024 50.7071 47.0422 55.9907C47.0615 58.5939 47.3122 60.7536 47.4482 62.7205V62.7398C47.8146 62.9519 48.1586 63.164 48.5859 63.4147C49.3572 62.1968 49.9936 62.4312 51.8833 63.3568C54.4865 64.6295 54.7372 64.7452 54.928 66.5771C54.9473 66.8085 54.9666 67.0206 55.0051 67.2327C56.8177 66.2107 58.881 65.1887 61.2336 63.6806C65.688 60.8074 71.0487 56.1023 77.1614 45.9016C77.9327 44.6096 78.7234 43.2628 79.514 41.7943L55.3928 28.7437ZM63.1832 49.8586L61.9491 55.7207L59.2728 50.36L53.3336 51.0349L57.5962 46.8119L55.1279 41.3548L60.4501 44.095L64.8659 40.0841L63.9018 46.0041L69.1082 48.9544L63.1832 49.8586Z" stroke="#1F2745" stroke-linejoin="round"/>
<path d="M47.4484 78.4172C47.487 76.6614 48.3161 74.7919 49.6812 72.2466C49.3973 71.3055 49.3253 70.3133 49.4705 69.3412C49.6156 68.3691 49.9742 67.4411 50.5205 66.624C50.1746 67.1589 49.7717 67.6547 49.3189 68.1027C49.8974 69.279 48.9525 71.0723 47.2749 70.2239L47.5063 70.5892C49.5503 71.7462 48.2005 74.3697 46.0215 73.3295L46.4274 73.6969C48.4329 74.7574 47.1795 77.3221 45.0198 76.3762C44.0749 75.953 43.3036 75.6445 42.6672 75.3745C41.0089 76.704 38.9456 77.0136 35.5132 76.5315L50.3997 84.5918C48.2776 82.1764 47.3906 80.3648 47.4484 78.4172Z" stroke="#1F2745" stroke-width="1.5" stroke-linejoin="round"/>
<path d="M35.03 76.2676L31.4048 81.0122L48.9331 90.5188L50.9386 84.8871L35.03 76.2676Z" stroke="#1F2745" stroke-width="1.5" stroke-linejoin="round"/>
<path d="M155.823 22.4176C155.822 22.1825 155.822 21.9474 155.824 21.7123C155.877 21.7369 155.929 21.7637 155.979 21.7924C156.153 21.8913 156.264 21.989 156.317 22.059C156.318 22.0602 156.319 22.0613 156.32 22.0624C156.293 22.0995 156.232 22.1655 156.104 22.2539C156.027 22.3063 155.934 22.3612 155.823 22.4176ZM156.341 22.0959C156.341 22.0959 156.341 22.0955 156.341 22.0946L156.341 22.0959Z" fill="#B9C0CB" stroke="#1F2745" stroke-width="1.5"/>
<path d="M160.167 163.053C157.962 162.313 155.537 161.056 153.355 159.636C151.004 158.106 149.011 156.435 147.904 155.092C148.54 153.296 148.815 150.889 148.755 148.45C148.7 146.172 148.351 143.795 147.685 141.767C147.847 141.76 148.009 141.756 148.171 141.756C149.905 143.428 152.773 147 155.293 151.147C157.685 155.085 159.688 159.419 160.167 163.053Z" fill="#B9C0CB" stroke="#1F2745" stroke-width="1.5"/>
<path d="M143.316 22.0592C143.395 22.2755 143.449 22.5 143.477 22.728C143.29 22.6459 143.149 22.5652 143.047 22.4911C142.942 22.4151 142.897 22.3616 142.879 22.3346C142.891 22.2978 142.941 22.2243 143.136 22.131C143.193 22.1037 143.254 22.0797 143.316 22.0592ZM142.868 22.3145C142.868 22.3145 142.869 22.3162 142.87 22.3197C142.868 22.3163 142.868 22.3146 142.868 22.3145ZM142.874 22.3563C142.875 22.3574 142.875 22.3586 142.875 22.3599C142.875 22.3597 142.875 22.3594 142.874 22.3591C142.874 22.3584 142.874 22.3575 142.874 22.3563Z" fill="#B9C0CB" stroke="#1F2745" stroke-width="1.5"/>
<path d="M122.527 75.4278L125.495 73.7776C124.79 76.1612 123.897 79.2431 123.012 82.3258C122.923 80.8629 122.811 79.3362 122.701 77.8472C122.641 77.0234 122.581 76.2112 122.527 75.4278Z" fill="white" stroke="#1F2745" stroke-width="1.5"/>
<path d="M114.091 36.4375C114.091 35.1263 112.394 34.6827 111.488 36.1097C111.411 34.8756 109.405 34.5873 108.422 36.264C108.21 34.9334 105.953 35.2227 105.163 36.7268C104.931 35.5505 103.003 36.2061 102.675 37.9609C102.328 39.8121 102.02 41.4897 101.808 42.9938C104.299 42.2612 106.885 41.8974 109.482 41.9139C108.942 43.9579 109.178 46.7154 110.061 44.8449C110.929 42.9745 113.146 44.3821 111.583 46.8311C111.332 47.3382 111.229 47.9063 111.287 48.4694C111.345 49.0325 111.561 49.5676 111.911 50.0128C112.142 45.9826 115.266 40.7569 116.23 38.6358C117.543 35.7626 115.556 34.9913 114.091 36.4375Z" fill="#B9C0CB"/>
<path d="M107.867 124.511C105.479 126.818 102.64 129.649 100.875 131.584C100.466 130.332 100.065 129.119 99.6796 127.968C102.401 126.89 105.173 125.726 107.867 124.511Z" fill="#B9C0CB" stroke="#1F2745" stroke-width="1.5"/>
<path d="M106.905 54.143C106.833 54.2351 106.758 54.3256 106.681 54.4145C106.685 54.3497 106.688 54.285 106.691 54.2203C106.763 54.1949 106.834 54.1691 106.905 54.143Z" fill="#B9C0CB" stroke="#1F2745" stroke-width="1.5"/>
<path d="M90.288 166.775C94.3516 166.137 98.8682 164.147 101.378 161.077C101.911 161.534 102.413 162.026 102.881 162.55C100.68 167.59 97.3164 172.245 94.0161 175.956C91.3012 179.009 88.6574 181.391 86.7811 182.805C87.2488 177.334 88.4273 171.945 90.288 166.775Z" fill="#B9C0CB" stroke="#1F2745" stroke-width="1.5"/>
<path d="M90.9722 87.5354C88.2445 88.824 85.4642 89.9965 82.6387 91.0499C85.7771 88.4224 88.6828 85.4174 90.4932 83.3885C90.6496 84.7712 90.8093 86.1535 90.9722 87.5354Z" fill="white" stroke="#1F2745" stroke-width="1.5"/>
<path d="M47.7852 82.3233L38.8388 77.4793C40.395 77.3984 41.6598 77.0114 42.7729 76.2323C42.8422 76.2612 42.9126 76.2905 42.9842 76.3203C43.4892 76.5304 44.0547 76.7658 44.7132 77.0607L44.7132 77.0607L44.7189 77.0632C45.4919 77.4018 46.2361 77.4022 46.8374 77.1565C46.7554 77.5757 46.7078 77.988 46.6987 78.3978C46.6593 79.7411 47.0199 80.9981 47.7852 82.3233Z" fill="#B9C0CB" stroke="#1F2745" stroke-width="1.5"/>
<path d="M48.5054 89.4418L32.5179 80.7709L35.2215 77.2325L50.0014 85.2406L48.5054 89.4418Z" fill="#B9C0CB" stroke="#1F2745" stroke-width="1.5"/>
<path d="M40.3115 152.236C39.6905 152.486 39.026 152.61 38.3566 152.601C37.0275 152.584 35.7589 152.043 34.8253 151.097C33.8916 150.151 33.3682 148.876 33.3682 147.546C33.3682 146.217 33.8916 144.942 34.8253 143.996C35.7589 143.05 37.0275 142.509 38.3566 142.492C39.026 142.483 39.6905 142.607 40.3115 142.857C40.9326 143.107 41.4978 143.478 41.9743 143.948C42.4508 144.419 42.8291 144.979 43.0874 145.596C43.3456 146.214 43.4786 146.877 43.4786 147.546C43.4786 148.216 43.3456 148.879 43.0874 149.496C42.8291 150.114 42.4508 150.674 41.9743 151.145C41.4978 151.615 40.9326 151.986 40.3115 152.236Z" fill="#A8D3CC" stroke="#1F2745" stroke-width="1.5"/>
<path d="M73.501 94.5005C65.6694 92.0274 55.4592 85.4766 52.1145 83.252C51.5548 82.8798 51.5285 82.0735 52.0311 81.6272C53.2227 80.5689 55.1319 78.7141 56.001 77.0005C56.7978 75.4295 57.186 73.0594 57.3641 71.5207C57.4471 70.8048 58.2225 70.3613 58.8672 70.6836L73.0743 77.7871C73.3442 77.9221 73.6636 77.9266 73.9382 77.8015C84.409 73.0281 90.818 69.6004 100.738 64.4001C101.176 64.1708 101.748 64.2831 102.194 64.4941C103.122 64.9324 105.12 65.3198 109.001 64.0005C112.358 62.8593 115.297 58.124 116.209 56.5282C116.394 56.2044 116.735 56.0005 117.108 56.0005H120.26C120.418 56.0005 120.575 55.9629 120.715 55.8907L141.456 45.2791C141.791 45.1081 142.001 44.7643 142.001 44.3888V24.0436C142.001 23.3189 142.751 22.8233 143.43 23.079C144.996 23.6696 147.547 24.5005 149.501 24.5005C151.488 24.5005 154.094 23.6408 155.652 23.0487C156.308 22.7995 157.039 23.2396 157.07 23.9407C157.327 29.7155 158.09 51.048 155.501 54.5005C152.708 58.225 129.539 71.0533 126.362 72.8024C126.124 72.933 125.96 73.148 125.889 73.4091L120.703 92.2656C120.584 92.6997 120.186 93 119.736 93.003C109.648 93.0701 103.751 94.5044 94.2388 99.3601C93.6301 99.6709 92.8893 99.3023 92.7813 98.6274L91.2874 89.2906C91.163 88.5132 90.2192 88.1605 89.5969 88.6427C86.5066 91.037 78.9576 96.2236 73.501 94.5005Z" fill="#1F2745" stroke="#1F2745"/>
</svg>
