<svg width="228" height="204" viewBox="0 0 228 204" fill="none" xmlns="http://www.w3.org/2000/svg">
<path d="M165.647 65.1764V47.3166V38.2819C165.647 33.8649 162.066 30.2833 157.649 30.283C156.131 30.2829 154.953 30.2832 154.772 30.2843H90.675C87.5435 30.2725 84.5355 31.5048 82.3126 33.7103C80.0895 35.9159 78.8333 38.9139 78.8203 42.0454V65.1542H92.5866V47.3166C92.5873 46.7868 92.6927 46.2624 92.8969 45.7735C93.1011 45.2846 93.3998 44.841 93.7759 44.4679C94.1521 44.0948 94.5984 43.8 95.089 43.5999C95.5794 43.4 96.1047 43.2988 96.6345 43.3026H149.033C150.104 43.3039 151.131 43.729 151.889 44.4855C152.648 45.2418 153.076 46.2676 153.081 47.3388V65.1764H165.647Z" fill="#B2DDFF"/>
<path d="M165.49 146.97L165.486 146.978L165.483 146.986L165.25 147.569L161.217 147.126V115.899H176.853V126.839C173.548 127.572 171.649 130.527 170.174 134.051C169.434 135.817 168.772 137.8 168.091 139.838C168.04 139.99 167.989 140.143 167.938 140.297C167.199 142.506 166.427 144.777 165.49 146.97Z" fill="#B2DDFF" stroke="#97A1B2" stroke-width="1.5"/>
<rect x="38.0078" y="65.5322" width="175" height="110" rx="7.5" fill="white" stroke="#B9C0CB"/>
<mask id="path-4-inside-1_5292_27006" fill="white">
<path d="M111.199 63.2432L114.601 68.0028C114.105 67.0195 113.882 65.9211 113.956 64.8223C112.988 64.3863 112.065 63.8574 111.199 63.2432Z"/>
</mask>
<path d="M111.199 63.2432L114.601 68.0028C114.105 67.0195 113.882 65.9211 113.956 64.8223C112.988 64.3863 112.065 63.8574 111.199 63.2432Z" fill="#0B1331"/>
<path d="M111.199 63.2432L112.067 62.0198L109.979 64.1154L111.199 63.2432ZM114.601 68.0028L113.381 68.875L115.94 67.3272L114.601 68.0028ZM113.956 64.8223L115.453 64.9229L115.523 63.8829L114.572 63.4547L113.956 64.8223ZM109.979 64.1154L113.381 68.875L115.821 67.1306L112.42 62.371L109.979 64.1154ZM115.94 67.3272C115.565 66.5838 115.397 65.7535 115.453 64.9229L112.459 64.7217C112.367 66.0888 112.645 67.4552 113.262 68.6785L115.94 67.3272ZM114.572 63.4547C113.693 63.0585 112.854 62.5779 112.067 62.0198L110.331 64.4665C111.276 65.1368 112.284 65.714 113.34 66.1899L114.572 63.4547Z" fill="#0B1331" mask="url(#path-4-inside-1_5292_27006)"/>
<path d="M199.411 108.96L199.412 108.96C199.866 109.997 199.717 111.005 199.162 112.122C198.637 113.18 197.797 114.241 196.871 115.409C196.79 115.512 196.708 115.616 196.625 115.721C195.633 116.976 194.58 118.35 193.959 119.838C193.838 120.127 193.733 120.421 193.648 120.72C192.859 118.668 192.276 116.542 191.907 114.37C193.697 113.102 194.384 111.513 194.027 110.263C193.833 109.584 193.312 109.037 192.567 108.927C192.027 108.847 191.482 109.012 190.982 109.357C191.057 108.819 191.231 108.142 191.475 107.533L191.757 106.828L191.048 106.555C190.73 106.432 190.404 106.337 190.073 106.269C191.056 105.518 192.509 105.088 194.069 105.195C196.183 105.34 198.325 106.473 199.411 108.96ZM190.966 110.135C190.966 110.135 190.965 110.132 190.963 110.127C190.965 110.132 190.966 110.134 190.966 110.135Z" fill="#0B1331" stroke="#0B1331" stroke-width="1.5"/>
<path d="M188.375 118.773C188.372 118.782 188.369 118.791 188.366 118.801C187.968 118.864 187.595 118.918 187.248 118.959C187.711 118.701 188.163 118.431 188.551 118.194C188.492 118.401 188.43 118.603 188.375 118.773ZM189.506 117.341C189.548 116.971 189.495 116.745 189.246 116.888L189.469 117.588C189.485 117.501 189.498 117.418 189.506 117.341C189.506 117.341 189.506 117.341 189.506 117.341Z" fill="#0B1331" stroke="#0B1331" stroke-width="1.5"/>
<path d="M166.062 86.1422L166.062 86.1422L166.063 86.1411C166.237 86.0186 166.34 86.0205 166.365 86.0233C166.38 86.0251 166.387 86.0288 166.388 86.0298C166.39 86.0309 166.391 86.0318 166.391 86.0322C166.391 86.0325 166.393 86.0341 166.393 86.038C166.394 86.0414 166.395 86.0511 166.391 86.0686C166.384 86.0979 166.349 86.1979 166.174 86.3222C166.002 86.4453 165.9 86.4433 165.875 86.4405C165.86 86.4388 165.852 86.435 165.85 86.4336C165.847 86.432 165.846 86.4305 165.845 86.4294C165.844 86.4283 165.843 86.4261 165.843 86.4221C165.842 86.4185 165.841 86.409 165.845 86.3922C165.851 86.3645 165.886 86.2654 166.062 86.1422Z" fill="#0B1331" stroke="#0B1331" stroke-width="1.5"/>
<path opacity="0.3" d="M194.92 65.0518H204.791C206.933 65.0518 208.988 65.9028 210.503 67.4175C212.017 68.9323 212.868 70.9867 212.868 73.1289V167.955C212.868 170.097 212.017 172.151 210.503 173.666C208.988 175.181 206.933 176.032 204.791 176.032H45.8682C43.726 176.032 41.6714 175.181 40.1567 173.666C38.6419 172.151 37.791 170.097 37.791 167.955V73.1289C37.791 70.9867 38.6419 68.9323 40.1567 67.4175C41.6714 65.9028 43.726 65.0518 45.8682 65.0518H90.8479" stroke="#B9C0CB" stroke-linecap="round" stroke-linejoin="round"/>
<path d="M67.0078 125.968H57.8743L41.0078 67.5322" fill="#B2DDFF"/>
<path d="M41.0078 67.5322L57.8743 125.968H67.0078H124.508" stroke="#B9C0CB" stroke-width="1.5" stroke-linecap="round" stroke-linejoin="round"/>
<path d="M160.936 125.97H125.129" stroke="#B9C0CB" stroke-width="1.5" stroke-linecap="round" stroke-linejoin="round"/>
<path d="M184.799 125.97H178.127" stroke="#0B1331" stroke-width="1.5" stroke-linecap="round" stroke-linejoin="round"/>
<path d="M209.508 67.0322L198.484 105.788" stroke="#B9C0CB" stroke-width="1.5" stroke-linecap="round" stroke-linejoin="round"/>
<path d="M115.074 67.8598C114.576 66.8757 114.353 65.7751 114.429 64.6746C113.46 64.237 112.535 63.7066 111.668 63.0908C111.756 63.2079 114.113 66.6951 115.074 67.8598Z" stroke="#0B1331" stroke-width="1.5" stroke-linecap="round" stroke-linejoin="round"/>
<path d="M178.074 127.368V115.024H160.936V147.674" fill="#C3E2F6"/>
<path d="M178.074 127.368V115.024H160.936V147.674" stroke="#0B1331" stroke-width="1.5" stroke-linecap="round" stroke-linejoin="round"/>
<path d="M71.9023 148.032V160.821" stroke="#0B1331" stroke-width="1.5" stroke-linecap="round" stroke-linejoin="round"/>
<path d="M78.2966 154.429H65.5078" stroke="#0B1331" stroke-width="1.5" stroke-linecap="round" stroke-linejoin="round"/>
<path d="M83.6283 90.7412C79.9292 99.1988 77.0736 104.574 74.0078 111.032" stroke="#0B1331" stroke-width="1.5" stroke-linecap="round" stroke-linejoin="round"/>
<path d="M125.131 84.3564C126.332 94.0982 122.128 96.2111 118.927 106.775C114.501 109.421 103.292 108.954 98.7106 104.239C98.7106 99.8809 97.2426 90.0058 95.5078 85.7799" stroke="#0B1331" stroke-width="1.5" stroke-linecap="round" stroke-linejoin="round"/>
<path d="M98.706 104.239C98.7505 107.709 93.9686 109.507 89.498 115.026" stroke="#0B1331" stroke-width="1.5" stroke-linecap="round" stroke-linejoin="round"/>
<path d="M119.635 118.985C119.79 119.831 119.968 120.698 120.146 121.543" stroke="#0B1331" stroke-width="1.5" stroke-linecap="round" stroke-linejoin="round"/>
<path d="M118.927 106.776C118.576 109.653 118.621 112.564 119.061 115.428" stroke="#0B1331" stroke-width="1.5" stroke-linecap="round" stroke-linejoin="round"/>
<path d="M181.996 75.9049C179.585 76.7467 177.273 77.8506 175.101 79.1966C172.892 80.7122 170.789 82.3768 168.807 84.1787C167.085 81.4788 165.006 79.0247 162.625 76.8835C166.427 75.8382 180.395 73.5309 182.463 73.415C187.251 73.1446 186.564 74.3902 181.996 75.9049Z" stroke="#0B1331" stroke-linecap="round" stroke-linejoin="round"/>
<path d="M162.404 76.7047C165.033 74.9472 167.484 72.9363 169.721 70.7007C173.134 67.1526 172.853 69.1859 172.034 70.7674C171.297 72.1885 168.319 75.4592 170.655 75.2367" stroke="#0B1331" stroke-linecap="round" stroke-linejoin="round"/>
<path d="M181.997 75.9051C183.298 75.6417 184.612 75.4561 185.934 75.3491C190.271 75.0447 190.367 76.1217 188.861 76.6836C188.743 76.7269 174.737 79.5363 171.609 81.7991" stroke="#0B1331" stroke-linecap="round" stroke-linejoin="round"/>
<path d="M188.433 76.7861C191.36 77.2743 191.232 78.0902 190.762 78.1522C188.94 78.3934 185.962 78.3863 184.245 78.5303C183.287 78.6123 179.352 79.0864 178.373 79.2643" stroke="#0B1331" stroke-linecap="round" stroke-linejoin="round"/>
<path d="M64.2933 130.255C66.0657 128.416 67.631 126.387 68.9617 124.207C70.2493 121.857 71.3757 119.423 72.3315 116.921C75.0863 118.553 78.0488 119.806 81.1397 120.642C78.2181 123.291 66.7935 131.651 64.9998 132.688C60.8489 135.089 60.9002 133.667 64.2933 130.255Z" stroke="#0B1331" stroke-linecap="round" stroke-linejoin="round"/>
<path d="M81.4175 120.703C79.8639 123.457 78.5845 126.357 77.5966 129.362C76.1509 134.068 75.4844 132.127 75.5022 130.346C75.5182 128.745 76.7004 124.483 74.7166 125.735" stroke="#0B1331" stroke-linecap="round" stroke-linejoin="round"/>
<path d="M64.2923 130.255C63.2505 131.077 62.161 131.836 61.0298 132.528C57.2965 134.756 56.7249 133.838 57.816 132.657C57.9009 132.565 69.1334 123.739 70.9041 120.309" stroke="#0B1331" stroke-linecap="round" stroke-linejoin="round"/>
<path d="M58.1512 132.372C55.3192 133.257 55.065 132.471 55.4569 132.204C56.9737 131.167 59.6346 129.83 61.1023 128.926C61.9199 128.421 65.2183 126.223 66.0114 125.622" stroke="#0B1331" stroke-linecap="round" stroke-linejoin="round"/>
<path d="M164.582 151.503C170.364 141.917 170.421 128.325 178.073 127.372C187.48 126.201 187.69 124.725 189.402 119.343C183.82 120.279 181.24 120.077 188.98 106.776" stroke="#0B1331" stroke-width="1.5" stroke-linecap="round" stroke-linejoin="round"/>
<path d="M166.206 148.254C166.206 148.254 159.023 147.498 146.39 146.297C143.921 149.166 143.387 154.859 145.678 159.53C145.678 159.53 156.199 160.943 163.516 161.887C169.837 162.706 173.019 162.735 175.236 157.929C176.883 153.867 178.279 149.707 179.417 145.474" stroke="#0B1331" stroke-linecap="round" stroke-linejoin="round"/>
<path d="M144.923 157.862C141.256 156.953 137.51 156.395 133.737 156.194C130.944 156.185 128.162 156.544 125.463 157.262C121.572 158.315 120.577 157.36 124.151 154.971C128.226 152.742 132.646 151.216 137.228 150.456" stroke="#0B1331" stroke-linecap="round" stroke-linejoin="round"/>
<path d="M134.781 150.877C136.67 149.721 131.29 147.366 130.11 146.407C128.511 145.119 126.751 143.633 131.823 145.028C136.391 146.04 141.007 146.813 145.656 147.341" stroke="#0B1331" stroke-linecap="round" stroke-linejoin="round"/>
<path d="M129.132 156.503C128.313 157.037 126.688 158.308 126.218 158.683C124.074 160.389 124.794 161.014 125.218 160.884C126.904 160.362 129.488 159.195 131.071 158.772C133.628 158.084 138.498 156.592 140.967 157.081" stroke="#0B1331" stroke-linecap="round" stroke-linejoin="round"/>
<path d="M130.913 158.819C130.601 159.17 130.357 159.486 130.201 159.638C128.422 161.745 129.201 162.287 129.578 162.083C131.12 161.251 133.382 159.592 134.827 158.882C136.628 158.051 138.515 157.423 140.453 157.009" stroke="#0B1331" stroke-linecap="round" stroke-linejoin="round"/>
<path d="M195.029 124.431C193.304 121.133 192.132 117.573 191.56 113.895C195.496 111.449 193.556 108.13 191.494 110.181C190.311 111.352 190.537 108.913 191.249 107.137C190.527 106.859 189.753 106.739 188.98 106.786C190.915 103.45 198.138 102.985 200.569 108.542C202.858 113.762 192.428 118.074 195.029 124.431Z" fill="#6B727E" stroke="#0B1331" stroke-width="1.5" stroke-linecap="round" stroke-linejoin="round"/>
<path d="M102.508 69.0322L95.0078 72.0322C95.0078 72.0322 88.7212 80.8301 86.0078 87.0322C82.5078 95.0322 74.5078 111.532 74.5078 111.532C74.5078 111.532 77.6499 114.31 80.0078 115.532C82.0369 116.584 86.0078 117.816 86.0078 117.816L96.9289 91.0322L99.5078 105.032C99.5078 105.032 104.84 107.512 108.508 108.032C112.379 108.582 118.508 107.532 118.508 107.532L124.008 94.5322L121.5 71.499L118.508 70.5322V74.5322L112.008 70.5322L104.008 74.5322L102.508 69.0322Z" fill="#535962"/>
<path d="M96.0078 86.0322L96.9289 91.0322M96.9289 91.0322L99.5078 105.032C99.5078 105.032 104.84 107.512 108.508 108.032C112.379 108.582 118.508 107.532 118.508 107.532L124.008 94.5322L121.5 71.499L118.508 70.5322V74.5322L112.008 70.5322L104.008 74.5322L102.508 69.0322L95.0078 72.0322C95.0078 72.0322 88.7212 80.8301 86.0078 87.0322C82.5078 95.0322 74.5078 111.532 74.5078 111.532C74.5078 111.532 77.6499 114.31 80.0078 115.532C82.0369 116.584 86.0078 117.816 86.0078 117.816L96.9289 91.0322Z" stroke="#0B1331"/>
<path d="M177.906 176.031C178.24 171.56 178.084 164.309 178.084 164.309C178.084 164.309 193.987 163.308 202.259 159.751C202.259 159.751 207.975 167.912 210.355 173.784" fill="#C3E2F6"/>
<path d="M177.906 176.031C178.24 171.56 178.084 164.309 178.084 164.309C178.084 164.309 193.987 163.308 202.259 159.751C202.259 159.751 207.975 167.912 210.355 173.784" stroke="#0B1331" stroke-width="1.5" stroke-linecap="round" stroke-linejoin="round"/>
<path d="M203.348 137.688C203.86 140.446 205.131 145.094 206.173 148.765C206.623 150.353 206.429 152.055 205.633 153.501C204.837 154.948 203.503 156.021 201.92 156.491" stroke="#0B1331" stroke-linecap="round" stroke-linejoin="round"/>
<path d="M96.9492 90.874L86.5078 118.032" stroke="#0B1331" stroke-width="1.5" stroke-linecap="round" stroke-linejoin="round"/>
<path d="M105.846 68.3326C110.601 69.5883 113.796 69.5851 115.432 68.3232" stroke="#0B1331" stroke-width="1.5" stroke-linecap="round" stroke-linejoin="round"/>
<path d="M103.096 69.3123L104.4 74.8375L112.205 69.2783L119.167 74.148L118.544 70.3014" stroke="#0B1331" stroke-width="1.5" stroke-linecap="round" stroke-linejoin="round"/>
<path d="M112.206 69.2783C115.778 82.1308 115.406 95.76 111.139 108.399" stroke="#0B1331" stroke-linecap="round" stroke-linejoin="round"/>
<path d="M123.993 94.4559C126.108 98.0769 128.503 101.527 131.155 104.775C131.966 105.781 132.967 106.617 134.103 107.235C135.237 107.854 136.483 108.242 137.767 108.378C139.052 108.515 140.351 108.396 141.59 108.03C142.83 107.663 143.984 107.056 144.988 106.243C156.819 96.6566 169.497 86.5766 169.497 86.5766C169.766 86.3577 169.641 85.7712 169.257 84.9881C167.368 81.7064 164.902 78.7919 161.979 76.3842C161.277 75.8808 160.727 75.6572 160.468 75.8785C152.79 81.0013 145.645 86.8801 139.139 93.427C139.139 93.427 131.154 74.5475 122.37 71.7205C114.228 69.0984 114.608 67.5836 114.43 64.67C117.083 65.7598 121.219 65.9342 120.324 56.3295C119.958 52.4372 118.919 51.4012 118.876 51.2842" fill="#535962"/>
<path d="M123.993 94.4559C126.108 98.0769 128.503 101.527 131.155 104.775C131.966 105.781 132.967 106.617 134.103 107.235C135.237 107.854 136.483 108.242 137.767 108.378C139.052 108.515 140.351 108.396 141.59 108.03C142.83 107.663 143.984 107.056 144.988 106.243C156.819 96.6566 169.497 86.5766 169.497 86.5766C169.766 86.3577 169.641 85.7712 169.257 84.9881C167.368 81.7064 164.902 78.7919 161.979 76.3842C161.277 75.8808 160.727 75.6572 160.468 75.8785C152.79 81.0013 145.645 86.8801 139.139 93.427C139.139 93.427 131.154 74.5475 122.37 71.7205C114.228 69.0984 114.608 67.5836 114.43 64.67C117.083 65.7598 121.219 65.9342 120.324 56.3295C119.958 52.4372 118.919 51.4012 118.876 51.2842" stroke="#0B1331" stroke-linecap="round" stroke-linejoin="round"/>
<path d="M189.403 119.342C187.157 119.72 185.4 119.898 184.604 119.12C185.471 119.542 188.968 117.193 189.719 116.762C190.471 116.331 189.403 119.342 189.403 119.342Z" stroke="#0B1331" stroke-width="1.5" stroke-linecap="round" stroke-linejoin="round"/>
<path d="M176.369 155.06C176.661 158.187 177.233 161.282 178.082 164.307" stroke="#0B1331" stroke-width="1.5" stroke-linecap="round" stroke-linejoin="round"/>
<path d="M195.029 124.431C196.831 128.812 200.414 126.99 202.258 131.125C205.39 138.133 200.523 149.117 202.258 159.749" stroke="#0B1331" stroke-linecap="round" stroke-linejoin="round"/>
<path d="M195.03 124.431C195.075 125.718 186.825 126.099 186.758 124.809" stroke="#0B1331" stroke-width="1.5" stroke-linecap="round" stroke-linejoin="round"/>
<path d="M155.91 79.0638C156.889 78.2631 166.029 89.3394 165.05 90.1401" stroke="#0B1331" stroke-linecap="round" stroke-linejoin="round"/>
<path d="M86.2173 118.291C85.6128 119.401 72.9711 112.589 73.5755 111.478" stroke="#0B1331" stroke-width="1.5" stroke-linecap="round" stroke-linejoin="round"/>
<path d="M103.911 54.509C103.911 54.509 90.5213 44.4769 90.5435 72.3021C90.5435 72.3021 82.0473 66.6528 83.6276 90.7391C87.452 82.0649 91.0129 75.2181 94.8584 72.4133C100.554 68.2577 104.673 70.4607 106.891 67.2755C109.817 63.0778 110.601 59.0053 109.981 58.379C106.695 55.0603 109.692 52.0191 111.184 54.3989C111.735 55.2804 112.289 55.758 112.613 54.7747C113.513 52.0484 116.862 48.5565 118.876 51.2887C115.028 44.1094 105.256 43.3063 103.911 54.509Z" fill="#B9C0CB" stroke="#0B1331" stroke-width="1.5" stroke-linecap="round" stroke-linejoin="round"/>
</svg>
